<?xml version="1.0" encoding="utf-8"?>
<!-- Generator: Adobe Illustrator 22.0.1, SVG Export Plug-In . SVG Version: 6.00 Build 0)  -->
<svg version="1.1" id="Layer_1" xmlns="http://www.w3.org/2000/svg" xmlns:xlink="http://www.w3.org/1999/xlink" x="0px" y="0px"
	 viewBox="0 0 723.8 427.5" style="enable-background:new 0 0 723.8 427.5;" xml:space="preserve">
<style type="text/css">
	.st0{fill:#FFFFFF;stroke:#14223C;stroke-width:2;stroke-linecap:round;stroke-linejoin:round;}
	.st1{fill:#E5E5E5;stroke:#14223C;stroke-width:2;stroke-linecap:round;stroke-linejoin:round;}
	.st2{fill:none;stroke:#14223C;stroke-width:2;stroke-linecap:round;stroke-linejoin:round;}
	.st3{fill:#E5E5E5;}
	.st4{fill:none;stroke:#E5E5E5;stroke-width:2;stroke-linecap:round;stroke-linejoin:round;}
	.st5{fill:#BDBDBD;}
	.st6{fill:#CDCDCD;}
	.st7{fill:#DEDEDE;}
	.st8{fill:#EEEEEE;}
	.st9{fill:#14223C;}
	.st10{fill:#ACACAC;}
	.st11{fill:none;stroke:#E5E5E5;stroke-width:2;stroke-miterlimit:10;}
	.st12{fill:none;stroke:#DBDBDB;stroke-width:2;stroke-linecap:round;stroke-linejoin:round;}
	.st13{opacity:0.3;}
	.st14{opacity:0.3;fill:#ACACAC;enable-background:new    ;}
	.st15{opacity:0.3;fill:#E5E5E5;enable-background:new    ;}
	.st16{opacity:0.17;fill:#ACACAC;enable-background:new    ;}
	.st17{fill:none;stroke:#FFFFFF;stroke-linecap:square;stroke-miterlimit:10;}
</style>
<title>Designer</title>
<g>
	<g id="Layer_2_1_">
		<g id="Layer_1-2">
			<path class="st0" d="M394.8,397.1c1.3,0.7,1.8,2.2,1.1,3.5c-0.2,0.4-0.5,0.7-0.9,1l-38.2,24.8l0,0l-2.1-3.3l-20.8-32.2l-5.3-8.1
				l-39.5-61l-1.2-1.8L273,297l-0.1-0.2L262.7,281l39.2,2.3l1,2l17.4,36.5l24.6,51.6l4.2,8.8l6.3,13.2c3.9,8.6,12.1,8,19,4.8
				l7.5-3.3c2.7-1.2,5.7-1.6,8.6-1.1C392,396,393.4,396.4,394.8,397.1L394.8,397.1z"/>
			<polygon class="st1" points="349,382.1 333.8,390.9 328.5,382.8 344.8,373.3 			"/>
			<path class="st2" d="M371.9,394.9"/>
			<line class="st2" x1="351.2" y1="386.8" x2="347.6" y2="389.2"/>
			<line class="st2" x1="353.2" y1="392.3" x2="349.7" y2="394.3"/>
			<line class="st2" x1="355.8" y1="397" x2="352.3" y2="399"/>
			<path class="st2" d="M395,401.5l-38.3,24.8l-2.1-3.3l40.1-26l0,0c1.3,0.6,1.8,2.2,1.1,3.5C395.7,401,395.4,401.3,395,401.5z"/>
			<rect x="128.8" y="246.7" class="st3" width="357.6" height="9.5"/>
			<path class="st4" d="M447.1,224.4v90.6c0,6.1,4.9,11,11,11l0,0h107.8c6.1,0,11-4.9,11-11l0,0"/>
			<path class="st4" d="M564.8,285.7h46.6c1.1,0,2,0.9,2,2v24.8c0,1.1-0.9,2-2,2h-46.6c-1.1,0-2-0.9-2-2v-24.8
				C562.8,286.6,563.7,285.7,564.8,285.7z"/>
			<path class="st4" d="M603.2,292.3h3.6c0.6,0,1,0.4,1,1v13.5c0,0.6-0.4,1-1,1h-3.6c-0.6,0-1-0.4-1-1v-13.5
				C602.2,292.8,602.6,292.3,603.2,292.3z"/>
			<path class="st4" d="M592,292.3h3.6c0.6,0,1,0.4,1,1v13.5c0,0.6-0.4,1-1,1H592c-0.6,0-1-0.4-1-1v-13.5
				C591,292.8,591.4,292.3,592,292.3z"/>
			<path class="st4" d="M585.1,304.4L585.1,304.4l-6-10.6l0,0c-0.5-1.2-2-1.8-3.2-1.2c-0.6,0.3-1,0.7-1.3,1.3l-5.9,10.5l0,0
				c-0.2,0.3-0.2,0.7-0.2,1.1c0,1.4,1.1,2.5,2.5,2.5l0,0h12c1.3,0,2.4-1.1,2.4-2.4C585.3,305.1,585.2,304.7,585.1,304.4L585.1,304.4
				z"/>
			<line class="st4" x1="576.9" y1="314.9" x2="576.9" y2="307.9"/>
			<path class="st1" d="M368.9,90h148.5c1.2,0,2.2,1,2.2,2.2v105.5c0,1.2-1,2.2-2.2,2.2H368.9c-1.2,0-2.2-1-2.2-2.2V92.2
				C366.7,91,367.7,90,368.9,90z"/>
			<path class="st1" d="M356.9,90h154.5c1.2,0,2.2,1,2.2,2.2v105.5c0,1.2-1,2.2-2.2,2.2H356.9c-1.2,0-2.2-1-2.2-2.2V92.2
				C354.7,91,355.7,90,356.9,90z"/>
			<path class="st0" d="M505.7,191h-142c-1.1,0-2-0.9-2-2v-89c0-1.1,0.9-2,2-2h142c1.1,0,2,0.9,2,2v89
				C507.7,190.1,506.8,191,505.7,191z"/>
			<path class="st3" d="M382.8,115.6h57.5c0.8,0,1.5,0.7,1.5,1.5v40.7c0,0.8-0.7,1.5-1.5,1.5h-57.5c-0.8,0-1.5-0.7-1.5-1.5v-40.7
				C381.4,116.3,382,115.6,382.8,115.6z"/>
			<path class="st0" d="M377.8,110.5h57.5c0.8,0,1.5,0.7,1.5,1.5v40.7c0,0.8-0.7,1.5-1.5,1.5h-57.5c-0.8,0-1.5-0.7-1.5-1.5V112
				C376.3,111.2,376.9,110.5,377.8,110.5z"/>
			<path class="st1" d="M376.3,112v3.6h60.4V112c0-0.8-0.7-1.5-1.5-1.5h-57.5C376.9,110.5,376.3,111.2,376.3,112z"/>
			<rect x="381.4" y="121.3" class="st5" width="9.7" height="17"/>
			<rect x="395" y="121.3" class="st6" width="9.7" height="17"/>
			<rect x="408.5" y="121.3" class="st7" width="9.7" height="17"/>
			<rect x="422.1" y="121.3" class="st8" width="9.7" height="17"/>
			<rect x="381.4" y="142.3" class="st8" width="50.4" height="7"/>
			<path class="st3" d="M435,133.9h57.5c0.8,0,1.5,0.7,1.5,1.5v40.7c0,0.8-0.7,1.5-1.5,1.5H435c-0.8,0-1.5-0.7-1.5-1.5v-40.7
				C433.5,134.6,434.2,133.9,435,133.9z"/>
			<path class="st0" d="M429.9,128.8h57.5c0.8,0,1.5,0.7,1.5,1.5V171c0,0.8-0.7,1.5-1.5,1.5h-57.5c-0.8,0-1.5-0.7-1.5-1.5v-40.7
				C428.4,129.5,429.1,128.8,429.9,128.8z"/>
			<path class="st1" d="M428.4,130.3v3.6h60.4v-3.6c0-0.8-0.7-1.5-1.5-1.5h-57.5C429.1,128.8,428.4,129.5,428.4,130.3z"/>
			<rect x="433.5" y="139.6" class="st5" width="9.7" height="17"/>
			<rect x="447.1" y="139.6" class="st6" width="9.7" height="17"/>
			<rect x="460.7" y="139.6" class="st7" width="9.7" height="17"/>
			<rect x="474.2" y="139.6" class="st8" width="9.7" height="17"/>
			<rect x="433.5" y="160.6" class="st8" width="50.4" height="7"/>
			<rect x="416.9" y="200" class="st1" width="47" height="33.7"/>
			<path class="st1" d="M405.7,233.7h52V200h-47v28.8C410.7,231.5,408.5,233.7,405.7,233.7C405.7,233.7,405.7,233.7,405.7,233.7z"/>
			<rect x="410.7" y="200" class="st9" width="47" height="6.8"/>
			<path class="st2" d="M405.7,233.7h52V200h-47v28.8C410.7,231.5,408.5,233.7,405.7,233.7C405.7,233.7,405.7,233.7,405.7,233.7z"/>
			<polygon class="st0" points="239.4,113.5 215.7,132.9 213.5,130.7 236.7,110.2 			"/>
			<rect x="327.8" y="226.1" class="st0" width="98.5" height="7.6"/>
			<path class="st0" d="M359.4,124.8l-11.8,10.8l0.2,0.1l6,5.1l0,0l0.3,0.3l0.2,0.2c1.8,1.7,1.9,4.5,0.4,6.3l-0.3,0.3l-5.1,6
				c-1.9,2.2-4.7,3.3-7.6,2.8l-4.2,5.2l-0.3,0.3l-2.7,3.3l-28.2,34.8c-3.3,4.1-8.8,5.6-13.8,3.9l-55.2-19.3c-4.6-1.7-7-6.7-5.3-11.3
				s6.7-7,11.3-5.3l0,0l52.4,18.6l28.5-30.7l2.9-3.1l4.2-4.5c5.2-4.9-0.7-3.7,0-5l13.4-28.3c0.7-1.4,2.3-1.9,3.7-1.2
				c1,0.5,1.6,1.5,1.5,2.6c0,0.4-0.1,0.8-0.3,1.1l-6.8,14l-0.6,1.3l1-0.9l12.3-11.3c1.1-1,2.9-0.9,3.9,0.2c0.5,0.5,0.7,1.2,0.7,1.9
				C360.2,123.6,359.9,124.3,359.4,124.8z"/>
			<path class="st0" d="M317.5,104l12.5-11c1.8-1.6,4.5-1.4,6.1,0.4l47.8,54c1.6,1.8,1.4,4.5-0.4,6.1l-12.5,11
				c-1.8,1.6-4.5,1.4-6.1-0.4l-47.8-54C315.6,108.3,315.7,105.6,317.5,104z"/>
			
				<rect x="324" y="102.2" transform="matrix(0.7491 -0.6625 0.6625 0.7491 11.8717 246.6514)" class="st10" width="15" height="11"/>
			
				<rect x="333.4" y="112.8" transform="matrix(0.7491 -0.6625 0.6625 0.7491 7.1974 255.5444)" class="st5" width="15" height="11"/>
			
				<rect x="342.8" y="123.4" transform="matrix(0.7491 -0.6625 0.6625 0.7491 2.5173 264.4269)" class="st6" width="15" height="11"/>
			
				<rect x="352.2" y="134" transform="matrix(0.7491 -0.6625 0.6625 0.7491 -2.1603 273.3162)" class="st7" width="15" height="11"/>
			
				<rect x="361.6" y="144.6" transform="matrix(0.7491 -0.6625 0.6625 0.7491 -6.8412 282.2117)" class="st8" width="15" height="11"/>
			<path class="st0" d="M264.1,157.8l-5.6,16.2c-1.6,4.7-17.3,9.9-22,8.3l3.3-14.5c0,0,5.3,1.4,6.8-2.7l3.5-10.1"/>
			<rect x="499.4" y="246.7" class="st1" width="26" height="179.7"/>
			<rect x="423.7" y="246.7" class="st0" width="75.8" height="179.7"/>
			<rect x="102.8" y="246.7" class="st1" width="26" height="179.7"/>
			<rect x="89.8" y="246.7" class="st0" width="13" height="179.7"/>
			<rect x="39.8" y="233.7" class="st0" width="510" height="13"/>
			<rect x="549.8" y="233.7" class="st1" width="65.9" height="13"/>
			<polygon class="st0" points="231.2,241.4 243.6,229.1 235.7,245.9 			"/>
			<path class="st3" d="M200.7,308.2h24.7l0,0l0,0c0,6.1-4.9,11-11,11h-2.7C205.6,319.2,200.7,314.3,200.7,308.2L200.7,308.2
				L200.7,308.2z"/>
			<rect x="207.1" y="308.2" class="st3" width="11.7" height="108.5"/>
			<path class="st3" d="M262.8,426.4L262.8,426.4L262.8,426.4h-99.5l0,0l0,0c0-6.5,5.2-11.7,11.7-11.7H251
				C257.5,414.7,262.8,419.9,262.8,426.4C262.8,426.4,262.8,426.4,262.8,426.4z"/>
			<path class="st3" d="M185.2,321.5h14.7c1.2,0,2.2,1,2.2,2.2v0c0,1.2-1,2.2-2.2,2.2h-14.7c-1.2,0-2.2-1-2.2-2.2v0
				C183,322.5,184,321.5,185.2,321.5z"/>
			<line class="st11" x1="192.5" y1="323.7" x2="210" y2="323.7"/>
			<path class="st1" d="M300.2,296.9c0,0-100.9,1.2-101.4,1.1c-1-0.1-2-0.3-2.9-0.6c-2.5-0.9-4.7-2.4-6.6-4.3
				c-11-10.9-11.3-28.6-1.2-40.3c3.3-3.9,6.6-7.5,9-9.8l5.3-5.6c6.6-6.9,10.8-15.8,11.9-25.4c0.5-4.8,1.9-9.4,3.9-13.8l11.4-24
				c2.6-5.5,8.9-8.1,14.6-6c7.3,2.7,14.4,5.3,14.4,5.3c-0.5,1.7-0.8,3.5-0.8,5.3c0,4.2,1.3,8.3,3.7,11.8l0.6,12.3
				c0.4,9-4.2,17.6-12,22.1c-4.2,2.5-7.6,6.2-9.7,10.7l-0.3,0.6L238,241l-2.3,4.9l-1.6,3.5c-1.1,2.5,0,5.5,2.5,6.6
				c0.3,0.1,0.6,0.2,0.9,0.3l11.4,2.7l41.1,12c3.4,0.8,6.5,2.7,8.8,5.3c0.4,0.4,0.7,0.9,1.1,1.4l0.2,0.3c1.5,2.2,2.4,4.6,2.8,7.2
				C303.3,289.3,302.4,293.5,300.2,296.9z"/>
			<path class="st1" d="M231.3,231.7"/>
			<path class="st12" d="M238.6,178.6l-11.4,23.9c-1.6,3.4-2.6,6.9-3,10.6c-1.3,11.7-6.4,22.6-14.6,31.1l-5.3,5.6l-0.2,0.2
				c-0.2,0.2-0.7,0.7-1.3,1.3c-6.7,7.1-8.4,17.5-4.3,26.4c2.6,5.5,7.5,10,16.5,10c15,0,41.4-0.1,58.6-0.2c5.1,0,9.2,4.1,9.3,9.2
				c0,0,0,0,0,0.1l0,0"/>
			<path class="st0" d="M258.5,173.5c0.1-0.3,0.2-0.7,0.3-1"/>
			<path class="st0" d="M258.5,173.5"/>
			
				<ellipse transform="matrix(0.5122 -0.8589 0.8589 0.5122 14.6302 256.638)" class="st1" cx="233.2" cy="115.4" rx="16.2" ry="16.2"/>
			<path class="st1" d="M227.2,104.8c1.8-1,3.9-1.6,6-1.6"/>
			<path class="st1" d="M233.2,127.6"/>
			<path class="st1" d="M282.2,116.7l-16.4,16.4h-9.6c-2.7,0-4.8,2.2-4.8,4.8c0,2.7,2.2,4.8,4.8,4.8l-12.8,12.8
				c-10.5-10.9-10.2-28.3,0.7-38.9C254.7,106.5,271.6,106.5,282.2,116.7z"/>
			<path class="st1" d="M260.5,112.9c0.8-0.1,1.6-0.1,2.4-0.1"/>
			<path class="st1" d="M260.5,112.9"/>
			<path class="st1" d="M257.4,113.4"/>
			<path class="st1" d="M248,118.2c0.8-0.6,1.6-1.2,2.4-1.7c2.2-1.4,4.6-2.4,7.1-3"/>
			<path class="st0" d="M290.4,136.3c0,15.2-12.4,27.5-27.5,27.4c-7.3,0-14.3-2.9-19.5-8.1l12.8-12.8c-2.7,0-4.8-2.2-4.8-4.8
				c0-2.7,2.2-4.8,4.8-4.8h9.6l16.4-16.4C287.5,121.9,290.4,128.9,290.4,136.3L290.4,136.3z"/>
			<polyline class="st2" points="294.4,144.5 294.4,133.1 294.4,124.8 			"/>
			<line class="st2" x1="294.4" y1="133.1" x2="265.8" y2="133.1"/>
			<path class="st2" d="M245.6,317.3"/>
			<path class="st2" d="M90.8,321.7"/>
			<path class="st2" d="M238,312.9"/>
			<path class="st0" d="M267.4,422.4c0.8,1.3,0.3,2.9-1,3.7c-0.4,0.2-0.9,0.4-1.4,0.4l-45.4-0.1l0.1-0.1l1.3-3.9l12.3-36.1l3.3-9.7
				l18.7-54.9l8.2-24.5l36.7-0.3l-43.3,79.7l-5.3,9.7l-8.7,15.9c-2.2,3.9-0.8,8.8,3.1,11c0.6,0.4,1.3,0.6,2,0.8l0.7,0.1l8.1,1.3
				C261.2,416.1,265.1,418.7,267.4,422.4L267.4,422.4z"/>
			<rect x="256.2" y="142.8" class="st0" width="3.8" height="12.8"/>
			<path class="st0" d="M241.6,233.2l-1.4,3.3l-2,4.6L238,241l-29-12.7c1.4-2.5,2.5-5.1,3.4-7.9L241.6,233.2z"/>
			<line class="st2" x1="643.2" y1="426.4" x2="689.1" y2="426.4"/>
			<line class="st2" x1="46.1" y1="426.4" x2="636.2" y2="426.4"/>
			<line class="st2" x1="694.2" y1="426.4" x2="698.2" y2="426.4"/>
			<path class="st0" d="M342.3,150.8c1.9-1.9,2.5-4.8,1.5-7.3c-0.1-0.4-0.3-0.7-0.5-1.1l5.6-2.3c1.4-0.6,2.1-2.2,1.5-3.6
				c-0.6-1.4-2.2-2.1-3.6-1.5c0,0,0,0,0,0l-11.7,4.8c-1.3,0.5-2.4,1.4-3.1,2.6c-1.8,2.8-1.2,6.6,1.3,8.7"/>
			<path class="st2" d="M239.5,115.7c-0.9-0.2-1.8-0.6-2.5-1.1c-0.9-0.6-1.6-1.3-2.1-2.3c-0.5-0.8-0.8-1.7-1-2.7"/>
			<polygon class="st0" points="212.6,133.8 215.7,132.9 213.5,130.7 			"/>
			<path class="st0" d="M259.6,96.2L237,114.6c-0.9-0.6-1.6-1.3-2.1-2.3l22-19.4c0.5-0.5,1.4-0.4,1.9,0.1c0,0,0,0,0,0l1,1.2
				C260.2,94.8,260.2,95.7,259.6,96.2C259.6,96.2,259.6,96.2,259.6,96.2z"/>
			<line class="st2" x1="255" y1="94.6" x2="257.5" y2="97.9"/>
			<polygon class="st1" points="256.9,376.6 251.6,386.3 233.3,386.3 236.6,376.6 			"/>
			<path class="st2" d="M351.9,431.8"/>
			<line class="st2" x1="248.3" y1="391.3" x2="243.1" y2="391.3"/>
			<line class="st2" x1="245.3" y1="396.3" x2="240.1" y2="396.3"/>
			<line class="st2" x1="243.3" y1="401.3" x2="238.1" y2="401.3"/>
			<path class="st2" d="M295.7,186.9l-3.5,3.5"/>
			<path class="st1" d="M391.9,233.7h-27.7c0-7.7,6.2-13.9,13.9-13.9S391.9,226,391.9,233.7C391.9,233.7,391.9,233.7,391.9,233.7z"
				/>
			<path class="st0" d="M352,222.9l34-9.2c1.4-0.4,2.8,0.5,3.2,1.9c0,0,0,0,0,0l0,0c0.4,1.4-0.5,2.8-1.8,3.1l-23.3,7L352,222.9z"/>
			<path class="st0" d="M385.7,233.7h-38.8l-54.7-0.1h-1.3l-1.2-0.1c-1.6-0.3-3.1-1-4.3-2.1l-2.1-1.9l-44.8-39.7
				c-3.6-3.2-3.9-8.8-0.7-12.5s8.8-3.9,12.5-0.7l41.1,38.2c1.7,1.5,3.8,2.5,6.1,2.7l48,5.6c2,0.3,4,0.2,6-0.4l11.7-3.1
				c2.3-0.6,4.8-0.4,7,0.6l7.4,3.3c0.7,0.3,1.7,0.9,2.8,1.4c2.6,1.4,4.5,4,5.1,6.9L385.7,233.7z"/>
			<line class="st2" x1="304" y1="218.5" x2="288.9" y2="216.8"/>
			<path class="st1" d="M422.5,226.1h13l0,0v7.6l0,0h-20.6l0,0l0,0C414.9,229.5,418.3,226.1,422.5,226.1z"/>
			<path class="st1" d="M496.5,233.7h40.7c3.1-1.8,4.2-5.7,2.5-8.9c-0.6-1-1.4-1.9-2.5-2.5h-40.7V233.7z"/>
			<path class="st0" d="M482.2,233.7h25.3c3.1-1.8,4.2-5.7,2.5-8.9c-0.6-1-1.4-1.9-2.5-2.5h-25.3c3.1,1.8,4.2,5.7,2.5,8.9
				C484,232.2,483.2,233.1,482.2,233.7L482.2,233.7z"/>
			<path class="st1" d="M503.6,222.4h40.7c3.1-1.8,4.2-5.7,2.5-8.9c-0.6-1-1.4-1.9-2.5-2.5h-40.7V222.4z"/>
			<path class="st0" d="M489.3,222.4h25.3c3.1-1.8,4.2-5.7,2.5-8.9c-0.6-1-1.4-1.9-2.5-2.5h-25.3c3.1,1.8,4.2,5.7,2.5,8.9
				C491.2,220.9,490.4,221.8,489.3,222.4z"/>
			<path class="st1" d="M258.6,306.6c-0.1,0.1-0.3,0.3-0.5,0.4c-1,0.8-2.2,1.2-3.4,1.2h-78.4c-1.3,0-2.6-0.1-3.8-0.4
				c-7.3-1.5-13-7.4-14.3-14.8l-17.3-96.9c-0.5-3,1.4-5.8,4.4-6.4c0,0,0,0,0,0c0.3-0.1,0.7-0.1,1-0.1h21c0,0,15.2,107.6,21.2,107.6
				h66.1c2.9-0.1,5.4,2.1,5.7,5v0.1C260.3,303.9,259.7,305.5,258.6,306.6z"/>
			<path class="st0" d="M267.6,306.6c-0.1,0.1-0.3,0.3-0.5,0.4c-1,0.8-2.2,1.2-3.4,1.2h-66.4c-1.3,0-2.6-0.1-3.8-0.4
				c-7.3-1.5-13-7.4-14.3-14.8l-17.3-96.9c-0.5-3,1.4-5.8,4.4-6.4c0,0,0,0,0,0c0.3-0.1,0.7-0.1,1-0.1c2.7,0,4.9,1.9,5.4,4.5
				l15.3,85.7l0.2,0.9l1.1,6.2c1.1,5.9,6.2,10.2,12.2,10.2h62.1c2.9-0.1,5.4,2.1,5.7,5v0.1C269.4,303.9,268.8,305.5,267.6,306.6z"/>
			<g class="st13">
				<rect y="108.5" class="st14" width="160.9" height="37.2"/>
			</g>
			<rect class="st3" width="168.9" height="6"/>
			<rect y="151.8" class="st3" width="160.9" height="6"/>
			<rect x="4.5" y="17.1" class="st15" width="75.5" height="4.1"/>
			<rect x="4.5" y="25.8" class="st15" width="75.5" height="4.1"/>
			<rect x="4.5" y="34.6" class="st15" width="75.5" height="4.1"/>
			<rect x="4.5" y="43.4" class="st15" width="75.5" height="4.1"/>
			<rect x="4.5" y="52.2" class="st15" width="75.5" height="4.1"/>
			<rect x="4.5" y="60.9" class="st15" width="75.5" height="4.1"/>
			<rect x="4.5" y="69.7" class="st15" width="75.5" height="4.1"/>
			<rect x="4.5" y="78.5" class="st15" width="75.5" height="4.1"/>
			<rect x="4.5" y="87.2" class="st15" width="75.5" height="4.1"/>
			<rect x="88.4" y="17.1" class="st15" width="67.9" height="4.1"/>
			<rect x="88.4" y="25.8" class="st15" width="67.9" height="4.1"/>
			<rect x="88.4" y="34.6" class="st15" width="67.9" height="4.1"/>
			<rect x="88.4" y="43.4" class="st15" width="67.9" height="4.1"/>
			<rect x="88.4" y="52.2" class="st15" width="67.9" height="4.1"/>
			<rect x="88.4" y="60.9" class="st15" width="67.9" height="4.1"/>
			<rect x="88.4" y="69.7" class="st15" width="67.9" height="4.1"/>
			<rect x="88.4" y="78.5" class="st15" width="67.9" height="4.1"/>
			<rect x="88.4" y="87.2" class="st15" width="67.9" height="4.1"/>
			<rect y="12" class="st15" width="160.9" height="89.9"/>
			<rect y="96.2" class="st15" width="160.9" height="5.6"/>
			<path class="st3" d="M165.7,99.7V85c0-1.2,1-2.2,2.2-2.2l0,0c1.2,0,2.2,1,2.2,2.2v14.7c0,1.2-1,2.2-2.2,2.2l0,0
				C166.7,101.9,165.7,100.9,165.7,99.7z"/>
			<line class="st11" x1="167.9" y1="92.4" x2="167.9" y2="0"/>
			<g class="st13">
				<rect x="553.8" y="91.3" class="st14" width="160.9" height="54.4"/>
			</g>
			<rect x="553.8" class="st3" width="168.9" height="6"/>
			<rect x="553.8" y="151.8" class="st3" width="160.9" height="6"/>
			<rect x="558.3" y="17.1" class="st15" width="75.5" height="4.1"/>
			<rect x="558.3" y="25.8" class="st15" width="75.5" height="4.1"/>
			<rect x="558.3" y="34.6" class="st15" width="75.5" height="4.1"/>
			<rect x="558.3" y="43.4" class="st15" width="75.5" height="4.1"/>
			<rect x="558.3" y="52.2" class="st15" width="75.5" height="4.1"/>
			<rect x="558.3" y="60.9" class="st15" width="75.5" height="4.1"/>
			<rect x="558.3" y="69.7" class="st15" width="75.5" height="4.1"/>
			<rect x="642.2" y="17.1" class="st15" width="68" height="4.1"/>
			<rect x="642.2" y="25.8" class="st15" width="68" height="4.1"/>
			<rect x="642.2" y="34.6" class="st15" width="68" height="4.1"/>
			<rect x="642.2" y="43.4" class="st15" width="68" height="4.1"/>
			<rect x="642.2" y="52.2" class="st15" width="68" height="4.1"/>
			<rect x="642.2" y="60.9" class="st15" width="68" height="4.1"/>
			<rect x="642.2" y="69.7" class="st15" width="68" height="4.1"/>
			<rect x="553.8" y="12" class="st15" width="160.9" height="72.7"/>
			<rect x="553.8" y="79" class="st15" width="160.9" height="5.6"/>
			<path class="st3" d="M719.5,99.7V85c0-1.2,1-2.2,2.2-2.2l0,0c1.2,0,2.2,1,2.2,2.2v14.7c0,1.2-1,2.2-2.2,2.2l0,0
				C720.4,101.9,719.5,100.9,719.5,99.7z"/>
			<line class="st11" x1="721.6" y1="92.4" x2="721.6" y2="0"/>
			<path class="st1" d="M265.1,426.4h-45.5l1.3-3.9h46.3l0,0c0.7,1.2,0.4,2.8-0.8,3.5C266.1,426.3,265.6,426.4,265.1,426.4z"/>
			<polygon class="st1" points="337.1,162.2 334.4,165.5 324.2,156.2 327.1,153.1 			"/>
			<line class="st2" x1="231.6" y1="238.2" x2="235.1" y2="230.4"/>
			<line class="st2" x1="239.7" y1="237.3" x2="236.7" y2="235.9"/>
			<line class="st2" x1="147.2" y1="201.4" x2="156.2" y2="201.4"/>
			<line class="st2" x1="147.9" y1="207.3" x2="156.9" y2="207.3"/>
			<polygon class="st16" points="641.1,385.4 689.2,385.4 682.5,426.4 647.8,426.4 			"/>
			<rect x="637.7" y="374.9" class="st3" width="54.9" height="5.4"/>
			<line class="st11" x1="665.1" y1="374.9" x2="665.1" y2="281.5"/>
			<path class="st16" d="M686.3,341.9h11.2l0,0l0,0c0,9.1-7.4,16.5-16.5,16.5c0,0,0,0,0,0h-11.1l0,0l0,0
				C669.9,349.3,677.2,341.9,686.3,341.9z"/>
			<path class="st16" d="M660.4,358.4h-11.2c-9.1,0-16.5-7.4-16.5-16.5l0,0l0,0h11.2C653,341.9,660.4,349.3,660.4,358.4L660.4,358.4
				L660.4,358.4L660.4,358.4z"/>
			<path class="st16" d="M683.1,321.9h9l0,0l0,0c0,7.3-5.9,13.2-13.2,13.2l0,0h-9l0,0l0,0C669.9,327.8,675.8,321.9,683.1,321.9
				L683.1,321.9z"/>
			<path class="st16" d="M660.4,335.1h-9c-7.3,0-13.2-5.9-13.2-13.2l0,0l0,0l0,0h9C654.5,321.9,660.4,327.8,660.4,335.1L660.4,335.1
				L660.4,335.1L660.4,335.1z"/>
			<path class="st16" d="M679.1,305.8h6.3l0,0l0,0c0,5.1-4.1,9.3-9.3,9.3l0,0h-6.3l0,0l0,0C669.9,310,674,305.8,679.1,305.8
				L679.1,305.8z"/>
			<path class="st16" d="M660.4,315.1h-6.3c-5.1,0-9.3-4.1-9.3-9.3c0,0,0,0,0,0l0,0l0,0h6.3C656.3,305.8,660.4,310,660.4,315.1
				C660.4,315.1,660.4,315.1,660.4,315.1L660.4,315.1L660.4,315.1z"/>
			<path class="st16" d="M676,291.3h4.2l0,0l0,0c0,3.4-2.7,6.1-6.1,6.1l0,0h-4.2l0,0l0,0C669.9,294.1,672.6,291.3,676,291.3
				L676,291.3z"/>
			<path class="st16" d="M660.4,297.5h-4.2c-3.4,0-6.1-2.7-6.1-6.1v0l0,0l0,0h4.2C657.7,291.3,660.4,294.1,660.4,297.5L660.4,297.5
				L660.4,297.5L660.4,297.5z"/>
			<polygon class="st0" points="592.9,209 592.2,213.6 589,233.7 572.2,233.7 569,213.6 568.2,209 			"/>
			<path class="st1" d="M594.9,186.8v2.7c0,2.8-2.2,5-5,5h-0.7c-2.2,0-4.1,1.8-4.1,4.1V209H576v-4.5c0-1-0.8-1.8-1.8-1.9h-2.9
				c-2.8,0-5-2.2-5-5v-2.9c0-1.7,1.4-3,3-3c1.7,0,3,1.4,3,3c0,1-0.1,1.9,0.9,1.9h1c1,0,1.8-0.9,1.8-1.9c0,0,0,0,0,0v-15.6
				c0-2.4,1.7-4.4,4.1-4.7c2.5-0.2,4.7,1.6,5,4.1c0,0.1,0,0.3,0,0.4v8.3c0,0.7,0.5,1.2,1.2,1.2h0.7c1.1,0,2-0.8,2-1.8c0,0,0,0,0-0.1
				c0-1.7,1.3-3,3-3c0.1,0,0.1,0,0.2,0C593.8,183.9,594.9,185.2,594.9,186.8z"/>
			<polygon class="st0" points="592.9,209 592.2,213.6 569,213.6 568.2,209 			"/>
			<rect x="102.8" y="246.6" class="st3" width="26" height="9.5"/>
			<path class="st17" d="M235.4,187.1"/>
			<path class="st17" d="M221.3,221.9"/>
			<path class="st0" d="M56.9,226.5H39.4c-2,0-3.6,1.6-3.6,3.6l0,0v4.9c0,2,1.4,3.6,3.4,3.8c2,0.1,3.7-1.4,3.8-3.4
				c0-0.1,0-0.1,0-0.2v-1.5h15.2"/>
			<path class="st0" d="M60.5,211.1H103c8.4,0,15.3,6.8,15.3,15.3l0,0v7.4l0,0H60.5l0,0V211.1L60.5,211.1z"/>
			<path class="st0" d="M56.1,221.4H44.2v-15.2c0-1.2,1-2.2,2.2-2.2c0.5,0,1,0.2,1.4,0.5l8.2,6.6L56.1,221.4z"/>
			<path class="st0" d="M64.9,221.4h11.8v-15.2c0-1.2-1-2.2-2.2-2.2c-0.5,0-1,0.2-1.4,0.5l-8.2,6.6L64.9,221.4z"/>
			<path class="st0" d="M55.6,211.1h9.9c6.3,0,11.3,5.1,11.3,11.3l0,0c0,6.3-5.1,11.3-11.3,11.3h-9.9c-6.3,0-11.3-5.1-11.3-11.3l0,0
				C44.2,216.1,49.3,211.1,55.6,211.1z"/>
			<line class="st2" x1="53.4" y1="212.1" x2="53.4" y2="213.4"/>
			<line class="st2" x1="57.1" y1="211.1" x2="57.1" y2="215.4"/>
			<line class="st2" x1="60.8" y1="211.1" x2="60.8" y2="213.4"/>
			<polyline class="st2" points="48.5,221.4 52.7,221.4 51.1,219.8 			"/>
			<polyline class="st2" points="65,221.4 60.9,221.4 60.8,219.8 			"/>
			<path class="st0" d="M113.7,233.7h7.4c1.2,0,2.2,1,2.2,2.2v25.8c0,4,3.2,7.2,7.2,7.2h2.1c2,0,3.6-1.6,3.6-3.6l0,0l0,0
				c0-2-1.6-3.6-3.6-3.6h0l0,0c-1.2,0-2.1-0.9-2.1-2.1v-26c0-4-3.2-7.2-7.2-7.2h0l0,0l0,0h-6"/>
			<path class="st0" d="M85.3,226.5H67.8c-2,0-3.6,1.6-3.6,3.6l0,0v4.9c0,2,1.4,3.6,3.4,3.8c2,0.1,3.7-1.4,3.8-3.4
				c0-0.1,0-0.1,0-0.2v-1.5h15.2"/>
			<path class="st1" d="M83.7,226.5c0,0,0.6-3.2,3.2-3.2"/>
			<line class="st2" x1="55.2" y1="225.4" x2="59.2" y2="225.4"/>
			<path class="st2" d="M80.7,211.1h0.4c4.8,0,8.7,3.9,8.7,8.7l0,0"/>
			<path class="st2" d="M88.3,211.1h0.4c4.8,0,8.7,3.9,8.7,8.7l0,0"/>
			<path class="st2" d="M95.9,211.1h0.4c4.8,0,8.7,3.9,8.7,8.7l0,0"/>
			<line class="st2" x1="127.3" y1="255.9" x2="129.5" y2="255.9"/>
			<line class="st2" x1="127.3" y1="250.6" x2="129.5" y2="250.6"/>
			<polygon class="st9" points="482.9,165.7 486.8,180.6 490.8,178 494.8,175.4 			"/>
			
				<rect x="490.9" y="174.9" transform="matrix(0.8407 -0.5416 0.5416 0.8407 -18.7816 294.8061)" class="st9" width="1.4" height="8.8"/>
			<rect x="423.7" y="246.7" class="st0" width="75.8" height="48.3"/>
			<rect x="450.3" y="266.2" class="st1" width="27.1" height="5.5"/>
			<rect x="445.7" y="266.2" class="st0" width="27.1" height="5.5"/>
			<rect x="423.7" y="295" class="st0" width="75.8" height="48.1"/>
			<rect x="450.3" y="314.3" class="st1" width="27.1" height="5.5"/>
			<rect x="445.7" y="314.3" class="st0" width="27.1" height="5.5"/>
			<rect x="450.3" y="362.4" class="st1" width="27.1" height="5.5"/>
			<rect x="445.7" y="362.4" class="st0" width="27.1" height="5.5"/>
			<rect x="499.5" y="246.7" class="st3" width="26" height="9.7"/>
			<rect x="435" y="85.1" class="st1" width="4.9" height="4.3"/>
			<rect x="431.6" y="85.1" class="st1" width="4.9" height="4.3"/>
			<circle class="st1" cx="435.7" cy="75.3" r="10.1"/>
			<path class="st1" d="M435.6,75.3c0,2-1.2,3.8-3.1,4.5c-0.6,0.2-1.2,0.4-1.8,0.3c-2.7,0-4.9-2.2-4.9-4.9c0-2.7,2.2-4.9,4.9-4.9
				c0.6,0,1.2,0.1,1.8,0.3C434.4,71.5,435.6,73.3,435.6,75.3z"/>
			<path class="st0" d="M435.6,75.3c-0.7,1.7-2.6,2.5-4.3,1.8c-1.7-0.7-2.5-2.6-1.8-4.3c0.5-1.3,1.7-2.1,3.1-2.1
				C434.4,71.5,435.6,73.3,435.6,75.3z"/>
			<line class="st2" x1="507.9" y1="195.6" x2="496.5" y2="195.6"/>
			<path class="st0" d="M465.4,396.4l4.7,30h-54.2c-2.6,0-4.7-2.1-4.7-4.7l0,0v-25.3c0-6,4.8-10.8,10.8-10.8c0,0,0,0,0,0h32.6
				C460.5,385.6,465.4,390.4,465.4,396.4z"/>
			<path class="st0" d="M474.7,390v5.7c0-2.6-2.1-4.7-4.6-4.7c-0.2,0-0.3,0-0.5,0c-2.4,0.3-4.2,2.4-4.2,4.8v4.7
				c0,6-4.8,10.8-10.8,10.8H417c-6,0-10.8-4.8-10.8-10.8l0,0v-5c0-5.6,4.5-10.1,10.1-10.1h0h54C472.8,385.6,474.7,387.6,474.7,390
				C474.7,390,474.7,390,474.7,390z"/>
			<path class="st0" d="M470,385.5L470,385.5c2.6,0,4.7,2.1,4.7,4.7v31.7c0,2.6-2.1,4.7-4.7,4.7l0,0c-2.6,0-4.7-2.1-4.7-4.7v-31.7
				C465.4,387.6,467.5,385.5,470,385.5z"/>
			<path class="st0" d="M431.1,411.5h14.4l0,0l0,0c0,2.8-2.2,5-5,5h-4.4C433.3,416.5,431.1,414.3,431.1,411.5L431.1,411.5
				L431.1,411.5z"/>
		</g>
	</g>
</g>
</svg>
