<svg xmlns="http://www.w3.org/2000/svg" viewBox="0 0 740.7 406.73"><defs><style>.cls-1{isolation:isolate;}.cls-10,.cls-12,.cls-16,.cls-17,.cls-2,.cls-7{fill:#e5e5e5;}.cls-14,.cls-18,.cls-19,.cls-20,.cls-3,.cls-6,.cls-9{fill:#fff;}.cls-11,.cls-13,.cls-4,.cls-5,.cls-8{fill:none;}.cls-11,.cls-13,.cls-4{stroke:#e5e5e5;}.cls-10,.cls-13,.cls-14,.cls-16,.cls-18,.cls-19,.cls-20,.cls-4,.cls-5,.cls-6,.cls-7,.cls-8,.cls-9{stroke-linecap:round;stroke-linejoin:round;}.cls-11,.cls-4,.cls-6,.cls-7,.cls-8{stroke-width:2px;}.cls-10,.cls-14,.cls-16,.cls-18,.cls-19,.cls-20,.cls-5,.cls-6,.cls-7,.cls-8,.cls-9{stroke:#14223c;}.cls-16,.cls-5{stroke-width:1.81px;}.cls-10,.cls-9{stroke-width:2px;}.cls-11{stroke-miterlimit:10;}.cls-12{opacity:0.3;}.cls-13{stroke-width:4px;opacity:0.5;}.cls-14{stroke-width:2px;}.cls-15{fill:#14223c;}.cls-17{mix-blend-mode:multiply;}.cls-18{stroke-width:2.01px;}.cls-19{stroke-width:2.01px;}.cls-20{stroke-width:1.99px;}</style></defs><title>Engineer_1</title><g class="cls-1"><g id="Layer_2" data-name="Layer 2"><g id="Layer_1-2" data-name="Layer 1"><path class="cls-2" d="M371.62,349H398a6.18,6.18,0,0,1,6.18,6.18v50.5a0,0,0,0,1,0,0H365.44a0,0,0,0,1,0,0v-50.5A6.18,6.18,0,0,1,371.62,349Z"/><rect class="cls-3" x="365.44" y="362.49" width="38.75" height="4.21"/><path class="cls-3" d="M384.49,397.95h.65a6.68,6.68,0,0,1,6.68,6.68v.1a0,0,0,0,1,0,0h-14a0,0,0,0,1,0,0v-.1A6.68,6.68,0,0,1,384.49,397.95Z"/><path class="cls-4" d="M91.34,247.72a11,11,0,0,0,11,11H173.1a11,11,0,0,0,11-11V244.2"/><rect class="cls-4" x="54.79" y="218.51" width="50.6" height="28.79" rx="2" ry="2" transform="translate(160.18 465.81) rotate(180)"/><rect class="cls-4" x="60.41" y="225.14" width="5.62" height="15.54" rx="1" ry="1" transform="translate(126.45 465.81) rotate(-180)"/><rect class="cls-4" x="71.66" y="225.14" width="5.62" height="15.54" rx="1" ry="1" transform="translate(148.94 465.81) rotate(-180)"/><path class="cls-4" d="M83.14,237.18h0l6-10.58h0a2.45,2.45,0,0,1,4.51.07l5.92,10.48h0a2.42,2.42,0,0,1,.25,1.07,2.45,2.45,0,0,1-2.45,2.45h-12a2.44,2.44,0,0,1-2.21-3.49Z"/><line class="cls-4" x1="91.34" y1="247.72" x2="91.34" y2="240.67"/><path class="cls-5" d="M541.45,69.89h0a23.88,23.88,0,0,1,23.88,23.88v17.58a0,0,0,0,1,0,0H517.57a0,0,0,0,1,0,0V93.77a23.88,23.88,0,0,1,23.88-23.88Z"/><rect class="cls-6" x="145.28" y="232.97" width="13.02" height="172.76" transform="translate(303.57 638.69) rotate(180)"/><rect class="cls-7" x="434.96" y="232.97" width="26.3" height="172.76" transform="translate(896.21 638.69) rotate(180)"/><rect class="cls-6" x="421.94" y="232.97" width="13.02" height="172.76" transform="translate(856.9 638.69) rotate(180)"/><rect class="cls-2" x="496.43" y="154.55" width="89.7" height="47.13" rx="12" ry="12"/><rect class="cls-2" x="484.31" y="275.67" width="89.39" height="11"/><path class="cls-2" d="M528.62,286.67h24.67a0,0,0,0,1,0,0v0a11,11,0,0,1-11,11h-2.67a11,11,0,0,1-11-11v0a0,0,0,0,1,0,0Z"/><rect class="cls-2" x="535.09" y="286.67" width="11.71" height="107.35"/><path class="cls-2" d="M546.81,346.21h0a0,0,0,0,1,0,0V453.53a0,0,0,0,1,0,0h0a11.71,11.71,0,0,1-11.71-11.71v-83.9A11.71,11.71,0,0,1,546.81,346.21Z" transform="translate(940.82 -141.08) rotate(90)"/><path class="cls-7" d="M577.16,232.14a11.24,11.24,0,0,0,13.58-15l-24.22-61.45a11.24,11.24,0,0,0-20.85,8.4l24.22,61.45A11.22,11.22,0,0,0,577.16,232.14Z"/><path class="cls-8" d="M575.41,207.75"/><path class="cls-7" d="M479.35,219.26a11.24,11.24,0,0,1-7.09-18.94l45.19-48.17a11.24,11.24,0,0,1,16.28,15.5l-45.19,48.17A11.22,11.22,0,0,1,479.35,219.26Z"/><circle class="cls-6" cx="479.95" cy="208.67" r="16"/><polygon class="cls-6" points="575.92 275.67 572.95 245.67 509.4 245.67 506.64 275.67 575.92 275.67"/><polyline class="cls-6" points="537.95 275.67 486.95 275.67 486.95 251.67 515.95 251.67"/><path class="cls-6" d="M499.4,272.24l.75,8.28.25,2.81a1.63,1.63,0,0,1,0,.22l8.11,89.37H490.86L474.78,265.4a12,12,0,0,1,11.83-13.73H496"/><path class="cls-6" d="M486.61,251.67"/><path class="cls-6" d="M500.4,283.33l-.25-2.81C500.26,281.41,500.34,282.35,500.4,283.33Z"/><polygon class="cls-7" points="509.94 386.98 497.24 386.98 496.4 381.96 495.69 377.66 495.61 377.2 494.89 372.92 508.53 372.92 508.96 377.2 509.66 384.23 509.94 386.98"/><polygon class="cls-7" points="571.41 372.92 570.55 377.2 568.57 386.98 555.87 386.98 557.19 377.2 557.77 372.92 571.41 372.92"/><polygon class="cls-6" points="572.95 245.67 509.4 245.67 510.06 236.67 572.5 236.67 572.95 245.67"/><path class="cls-7" d="M572.5,236.67H510.06L511.65,215l.27-3.7,4-53.8a9.55,9.55,0,0,1,6.17-8.23,9.38,9.38,0,0,1,3.23-.61h32a9.53,9.53,0,0,1,9.39,8.84Z"/><path class="cls-8" d="M552.71,207.67"/><path class="cls-8" d="M537.47,222.91"/><line class="cls-8" x1="538.95" y1="240.67" x2="542.95" y2="240.67"/><path class="cls-6" d="M567.31,267.39l-9.6,105.53h17.67L591.47,265.4a12,12,0,0,0-23.41-4.73"/><path class="cls-6" d="M491.62,209a11.24,11.24,0,0,1-11.52,11H447.49l-40-4.1,71.85-18.35c.42,0,.85,0,1.28,0A11.27,11.27,0,0,1,491.62,209Z"/><rect class="cls-9" x="137.61" y="219.97" width="275.81" height="13" transform="translate(551.02 452.93) rotate(-180)"/><rect class="cls-10" x="413.42" y="219.97" width="86" height="13" transform="translate(912.83 452.93) rotate(-180)"/><polygon class="cls-6" points="589.32 201.14 588.85 206.54 586.7 231.42 586.06 238.79 569.76 238.79 566.51 201.14 589.32 201.14"/><polygon class="cls-6" points="586.44 193.02 588.52 197.18 567.31 197.18 569.39 193.02 586.44 193.02"/><rect class="cls-7" x="564.19" y="197.18" width="27.44" height="3.97"/><rect class="cls-6" x="562.87" y="209.54" width="7.39" height="7.39" rx="3.7" ry="3.7"/><path class="cls-6" d="M592.34,213.86l-1.43,16.59a4,4,0,0,1-4.31,3.62l-6.25-.54a4.3,4.3,0,0,1-3.42-3.32l-3.16-16.85a3.43,3.43,0,0,1,.32-2.23,3.2,3.2,0,0,1,2.88-1.59h11.41A4,4,0,0,1,592.34,213.86Z"/><polygon class="cls-6" points="511.44 405.73 471.73 405.73 471.73 402.73 511.15 402.73 511.44 405.73"/><path class="cls-6" d="M509.94,387h-12.7l.08,2.75a5.18,5.18,0,0,1-5.15,5.12H479.58a7.87,7.87,0,0,0-7.84,7.87h39.42Z"/><polygon class="cls-6" points="553.4 405.73 582.92 405.73 582.92 402.73 553.82 402.73 553.4 405.73"/><path class="cls-6" d="M575,394.85a7.93,7.93,0,0,0-.91.06,5,5,0,0,0-.61-.06h0a5.07,5.07,0,0,1-5.07-5.07V387H555.87l-2,15.75h29.1A7.87,7.87,0,0,0,575,394.85Z"/><line class="cls-8" x1="563.64" y1="392" x2="568.96" y2="392"/><line class="cls-8" x1="497" y1="392" x2="500.6" y2="392"/><line class="cls-8" x1="563.62" y1="394.85" x2="572.94" y2="394.85"/><line class="cls-8" x1="492.28" y1="394.85" x2="500.6" y2="394.85"/><polygon class="cls-6" points="508.96 377.2 491.45 377.2 490.86 372.92 508.53 372.92 508.96 377.2"/><polygon class="cls-6" points="575.39 372.92 574.66 377.2 557.19 377.2 557.77 372.92 575.39 372.92"/><rect class="cls-2" x="510.94" y="300" width="19.01" height="4.33" rx="2.17" ry="2.17"/><line class="cls-11" x1="520.45" y1="302.17" x2="537.95" y2="302.17"/><line class="cls-8" x1="629" y1="405.73" x2="674.96" y2="405.73"/><line class="cls-8" x1="55.93" y1="405.73" x2="622" y2="405.73"/><path class="cls-6" d="M486.61,251.67"/><path class="cls-12" d="M469.16,14.38a33.5,33.5,0,1,0,33.5,33.5A33.5,33.5,0,0,0,469.16,14.38Zm0,60.07a26.58,26.58,0,1,1,26.57-26.57A26.58,26.58,0,0,1,469.16,74.45Z"/><polyline class="cls-13" points="485.09 38.79 469.59 49.66 460.82 42.56"/><rect class="cls-7" x="177" y="66.89" width="155" height="120" rx="2.24" ry="2.24"/><rect class="cls-6" x="185" y="66.89" width="159" height="120" rx="2.24" ry="2.24"/><rect class="cls-14" x="191" y="74.89" width="146" height="103.95" rx="2" ry="2"/><rect class="cls-2" x="313" y="95.89" width="52" height="38" rx="1.25" ry="1.25"/><rect class="cls-6" x="317" y="91.89" width="52" height="38" rx="1.25" ry="1.25"/><path class="cls-7" d="M369,93.14v2.75H317V93.14a1.25,1.25,0,0,1,1.25-1.25h49.5A1.25,1.25,0,0,1,369,93.14Z"/><polygon class="cls-15" points="350.71 124.43 354.6 139.28 358.62 136.69 362.64 134.12 350.71 124.43"/><rect class="cls-15" x="358.73" y="133.61" width="1.43" height="8.75" transform="translate(-17.45 216.68) rotate(-32.79)"/><path class="cls-7" d="M229,186.89h47a0,0,0,0,1,0,0v33a0,0,0,0,1,0,0H234a5,5,0,0,1-5-5v-28a0,0,0,0,1,0,0Z"/><path class="cls-6" d="M293,219.89H246a5,5,0,0,1-5-5v-28h47v28A5,5,0,0,0,293,219.89Z"/><rect class="cls-15" x="241" y="186.89" width="47" height="6"/><path class="cls-8" d="M293,219.89H246a5,5,0,0,1-5-5v-28h47v28A5,5,0,0,0,293,219.89Z"/><rect class="cls-6" x="288.18" y="212.34" width="98.52" height="7.62" transform="translate(674.88 432.31) rotate(180)"/><path class="cls-7" d="M279,212.34h20.67a0,0,0,0,1,0,0V220a0,0,0,0,1,0,0h-13a7.62,7.62,0,0,1-7.62-7.62v0A0,0,0,0,1,279,212.34Z" transform="translate(578.59 432.31) rotate(-180)"/><rect class="cls-2" x="198.71" y="99.44" width="83" height="60" rx="2" ry="2"/><rect class="cls-6" x="205.71" y="92.44" width="83" height="60" rx="2" ry="2"/><path class="cls-7" d="M288.71,94.44v5h-83v-5a2,2,0,0,1,2-2h79A2,2,0,0,1,288.71,94.44Z"/><rect class="cls-6" x="271.21" y="81.41" width="35" height="26" rx="0.85" ry="0.85"/><path class="cls-7" d="M306.21,82.26v3.15h-35V82.26a.86.86,0,0,1,.85-.85h33.29A.86.86,0,0,1,306.21,82.26Z"/><rect class="cls-12" y="14.38" width="45.55" height="7.09"/><rect class="cls-12" y="29.47" width="45.55" height="7.09"/><rect class="cls-12" y="44.56" width="45.55" height="7.09"/><rect class="cls-12" y="59.65" width="45.55" height="7.09"/><rect class="cls-12" y="74.74" width="45.55" height="7.09"/><rect class="cls-12" y="89.82" width="45.55" height="7.09"/><rect class="cls-12" y="104.91" width="45.55" height="7.09"/><rect class="cls-12" y="120" width="45.55" height="7.09"/><rect class="cls-12" y="135.09" width="45.55" height="7.09"/><rect class="cls-12" y="150.18" width="45.55" height="7.09"/><rect class="cls-12" y="165.27" width="45.55" height="7.09"/><rect class="cls-12" x="59.15" y="14.38" width="45.55" height="7.09"/><rect class="cls-12" x="59.15" y="29.47" width="45.55" height="7.09"/><rect class="cls-12" x="59.15" y="44.56" width="45.55" height="7.09"/><rect class="cls-12" x="59.15" y="59.65" width="45.55" height="7.09"/><rect class="cls-12" x="59.15" y="74.74" width="45.55" height="7.09"/><rect class="cls-12" x="59.15" y="89.82" width="45.55" height="7.09"/><rect class="cls-12" x="59.15" y="104.91" width="45.55" height="7.09"/><rect class="cls-12" x="59.15" y="120" width="45.55" height="7.09"/><rect class="cls-12" x="59.15" y="135.09" width="45.55" height="7.09"/><rect class="cls-12" x="59.15" y="150.18" width="45.55" height="7.09"/><rect class="cls-12" x="59.15" y="165.27" width="45.55" height="7.09"/><rect class="cls-12" x="635.99" y="14.38" width="45.55" height="7.09"/><rect class="cls-2" x="635.99" y="0.2" width="104.71" height="7.09"/><rect class="cls-2" y="0.2" width="104.71" height="7.09"/><rect class="cls-2" y="179.73" width="104.71" height="7.09"/><rect class="cls-2" x="635.99" y="179.05" width="104.71" height="7.09"/><rect class="cls-12" x="635.99" y="29.47" width="45.55" height="7.09"/><rect class="cls-12" x="635.99" y="44.56" width="45.55" height="7.09"/><rect class="cls-12" x="635.99" y="59.65" width="45.55" height="7.09"/><rect class="cls-12" x="635.99" y="74.74" width="45.55" height="7.09"/><rect class="cls-12" x="635.99" y="89.82" width="45.55" height="7.09"/><rect class="cls-12" x="635.99" y="104.91" width="45.55" height="7.09"/><rect class="cls-12" x="635.99" y="120" width="45.55" height="7.09"/><rect class="cls-12" x="635.99" y="135.09" width="45.55" height="7.09"/><rect class="cls-12" x="635.99" y="150.18" width="45.55" height="7.09"/><rect class="cls-12" x="635.99" y="165.27" width="45.55" height="7.09"/><rect class="cls-12" x="695.14" y="14.38" width="45.55" height="7.09"/><rect class="cls-12" x="695.14" y="29.47" width="45.55" height="7.09"/><rect class="cls-12" x="695.14" y="44.56" width="45.55" height="7.09"/><rect class="cls-12" x="695.14" y="59.65" width="45.55" height="7.09"/><rect class="cls-12" x="695.14" y="74.74" width="45.55" height="7.09"/><rect class="cls-12" x="695.14" y="89.82" width="45.55" height="7.09"/><rect class="cls-12" x="695.14" y="104.91" width="45.55" height="7.09"/><rect class="cls-12" x="695.14" y="120" width="45.55" height="7.09"/><rect class="cls-12" x="695.14" y="135.09" width="45.55" height="7.09"/><rect class="cls-12" x="695.14" y="150.18" width="45.55" height="7.09"/><rect class="cls-12" x="695.14" y="165.27" width="45.55" height="7.09"/><line class="cls-8" x1="500.7" y1="286.67" x2="565.53" y2="286.67"/><line class="cls-8" x1="680" y1="405.73" x2="684" y2="405.73"/><path class="cls-15" d="M509.94,387h-2.77v-.09a2.66,2.66,0,0,1,2.49-2.66Z"/><path class="cls-15" d="M500.22,379.56a2.66,2.66,0,0,1-2.67,2.66,2.62,2.62,0,0,1-1.15-.26l-.71-4.3a2.45,2.45,0,0,1,.61-.46,2.66,2.66,0,0,1,1.25-.31,2.7,2.7,0,0,1,1.26.31A2.66,2.66,0,0,1,500.22,379.56Z"/><path class="cls-15" d="M559.37,378.7c0-1.47,1.19-1.51,2.67-1.51s2.67,0,2.67,1.51a2.67,2.67,0,1,1-5.33,0Z"/><path class="cls-15" d="M568.82,385.74a2.67,2.67,0,0,0-5.19.87c0,.13,0,.25,0,.37Z"/><path class="cls-8" d="M499.71,275.67h-1a2,2,0,0,1-1.94-1.58h0"/><line class="cls-11" x1="541.28" y1="260.67" x2="541.28" y2="247.17"/><path class="cls-7" d="M534.58,83.72a6.81,6.81,0,1,0-13.62,0V112h8.25V90.38A6.81,6.81,0,0,0,534.58,83.72Z"/><line class="cls-8" x1="524" y1="99.21" x2="524" y2="78.04"/><line class="cls-8" x1="527.05" y1="99.21" x2="527.05" y2="76.95"/><polyline class="cls-8" points="530.1 99.21 530.1 90.11 530.1 77.34"/><polyline class="cls-8" points="533.15 99.21 533.15 87.88 533.15 79.56"/><path class="cls-6" d="M548.28,83.72a6.81,6.81,0,1,1,13.63,0V112h-8.25V90.38A6.81,6.81,0,0,1,548.28,83.72Z"/><path class="cls-6" d="M550,133.44V149a9,9,0,0,1-9,9h0a9,9,0,0,1-9-9V133.44Z"/><rect class="cls-6" x="514.95" y="108.44" width="52" height="10" rx="5" ry="5"/><path class="cls-6" d="M562,97.79v23.3a20.41,20.41,0,0,1-20.35,20.35h-.3A20.41,20.41,0,0,1,521,121.09V97.79a19,19,0,0,1,.22-2.93A20.4,20.4,0,0,1,541.3,77.44h.3A20.41,20.41,0,0,1,562,97.79Z"/><path class="cls-6" d="M526,107.47a6.24,6.24,0,0,1,6.39-5"/><path class="cls-6" d="M549.46,102.61a6.24,6.24,0,0,1,7.09,3.94"/><path class="cls-15" d="M532.45,110.44a1.5,1.5,0,1,1,1.5-1.5,1.49,1.49,0,0,1-1.5,1.5Z"/><path class="cls-15" d="M532.45,108.44a.5.5,0,0,1,.5.5.5.5,0,1,1-.5-.5h0m0-2a2.5,2.5,0,0,0,0,5h0a2.5,2.5,0,0,0,0-5Z"/><path class="cls-15" d="M550.45,110.44a1.5,1.5,0,1,1,1.5-1.5,1.49,1.49,0,0,1-1.5,1.5Z"/><path class="cls-15" d="M550.45,108.44a.5.5,0,0,1,.5.5.5.5,0,1,1-.5-.5h0m0-2a2.5,2.5,0,0,0,0,5h0a2.5,2.5,0,0,0,0-5Z"/><path class="cls-8" d="M541.39,130.58h0a9.28,9.28,0,0,1-9.28-9.28h18.56A9.28,9.28,0,0,1,541.39,130.58Z"/><path class="cls-7" d="M572.94,92.41H538.61a5.33,5.33,0,0,1-5.33-5.33V82.24A5.33,5.33,0,0,0,528,76.91h34.33a5.33,5.33,0,0,1,5.33,5.33v4.84A5.33,5.33,0,0,0,572.94,92.41Z"/><path class="cls-8" d="M545,88.41h-5.39a2.28,2.28,0,0,1-2.28-2.28V84.66"/><line class="cls-8" x1="527.95" y1="121.3" x2="527.95" y2="123.19"/><line class="cls-8" x1="554.67" y1="121.3" x2="554.67" y2="123.19"/><line class="cls-8" x1="549.95" y1="172.36" x2="559.91" y2="172.36"/><path class="cls-16" d="M510.6,103.7h0a7,7,0,0,1,7,7v4.5a7,7,0,0,1-7,7h0a0,0,0,0,1,0,0V103.7A0,0,0,0,1,510.6,103.7Z" transform="translate(1028.16 225.85) rotate(-180)"/><rect class="cls-16" x="517.57" y="103.7" width="3.38" height="18.54"/><path class="cls-16" d="M565.33,103.7h0a7,7,0,0,1,7,7v4.5a7,7,0,0,1-7,7h0a0,0,0,0,1,0,0V103.7A0,0,0,0,1,565.33,103.7Z"/><rect class="cls-16" x="561.95" y="103.7" width="3.38" height="18.54" transform="translate(1127.28 225.95) rotate(-180)"/><path class="cls-6" d="M362,216.23H479.63a3.66,3.66,0,0,1,3.66,3.66v0a0,0,0,0,1,0,0H362a0,0,0,0,1,0,0v-3.66A0,0,0,0,1,362,216.23Z"/><path class="cls-6" d="M437.25,159.89l10,60H365.88a2,2,0,0,1-2-1.67l-9.33-56a2,2,0,0,1,2-2.33Z"/><path class="cls-6" d="M433.69,161.56l9.33,56a2,2,0,0,1-2,2.33H362a2,2,0,0,1-2-1.67l-9.33-56a2,2,0,0,1,2-2.33h79A2,2,0,0,1,433.69,161.56Z"/><ellipse class="cls-7" cx="396.88" cy="189.89" rx="6.37" ry="7.12" transform="translate(-41.77 223.88) rotate(-30)"/><path class="cls-7" d="M208.67,219.89H158a6.5,6.5,0,0,1,0-11.32h50.67Z"/><path class="cls-14" d="M234,219.89H208.67a6.5,6.5,0,0,1,0-11.32H234a6.5,6.5,0,0,0,0,11.32Z"/><path class="cls-7" d="M208.67,208.57H168a6.5,6.5,0,0,1,0-11.32h40.67Z"/><path class="cls-14" d="M223,208.57H197.65a6.5,6.5,0,0,1,0-11.32H223a6.5,6.5,0,0,0,0,11.32Z"/><path class="cls-2" d="M185.13,0h18a0,0,0,0,1,0,0V17.13a0,0,0,0,1,0,0h-18a8.56,8.56,0,0,1-8.56-8.56v0A8.56,8.56,0,0,1,185.13,0Z"/><path class="cls-2" d="M337.43,0h18a0,0,0,0,1,0,0V17.13a0,0,0,0,1,0,0h-18a8.56,8.56,0,0,1-8.56-8.56v0A8.56,8.56,0,0,1,337.43,0Z" transform="translate(684.31 17.13) rotate(180)"/><rect class="cls-2" x="203.13" width="125.74" height="17.13"/><rect class="cls-3" x="203.13" y="5.64" width="125.74" height="5.84"/><rect class="cls-17" x="158.56" y="232.97" width="263.38" height="9.5"/><rect class="cls-17" x="434.96" y="232.97" width="26.3" height="9.5"/><rect class="cls-6" x="158.29" y="316.89" width="195.51" height="9.92"/><rect class="cls-7" x="307.81" y="316.89" width="46" height="9.92"/><path class="cls-18" d="M220.7,286.89h74a0,0,0,0,1,0,0v30a0,0,0,0,1,0,0H234.59A13.89,13.89,0,0,1,220.7,303V286.89a0,0,0,0,1,0,0Z" transform="translate(515.39 603.78) rotate(180)"/><path class="cls-19" d="M197.7,286.89h42a0,0,0,0,1,0,0v30a0,0,0,0,1,0,0H211.61A13.92,13.92,0,0,1,197.7,303V286.89A0,0,0,0,1,197.7,286.89Z" transform="translate(437.39 603.78) rotate(180)"/><polygon class="cls-20" points="218.7 286.89 260.7 286.89 250.7 275.67 208.7 275.67 218.7 286.89"/><rect class="cls-7" x="247.7" y="302.73" width="38.99" height="8.66" transform="translate(534.39 614.11) rotate(180)"/><rect class="cls-15" x="247.7" y="302.73" width="31.83" height="8.66" transform="translate(527.23 614.11) rotate(180)"/><path class="cls-6" d="M249.19,308.37v0a5.26,5.26,0,0,1,5.25,5.25v21.49a5.18,5.18,0,0,0,5.18,5.17h24.82V313.64a5.26,5.26,0,0,0-5.25-5.25v0Z"/><path class="cls-6" d="M259.7,340.3v0h29.75v0A5.25,5.25,0,0,0,294.7,335V333.3H264.95V335A5.25,5.25,0,0,1,259.7,340.3Z"/><line class="cls-19" x1="286.69" y1="297.06" x2="247.7" y2="297.06"/><line class="cls-8" x1="330.81" y1="316.89" x2="330.81" y2="234.04"/><line class="cls-4" x1="226.54" y1="303.17" x2="205.37" y2="303.17"/><path class="cls-4" d="M205.37,311.39"/><path class="cls-4" d="M226.54,311.39"/><line class="cls-4" x1="226.54" y1="307.28" x2="205.37" y2="307.28"/></g></g></g></svg>