<svg xmlns="http://www.w3.org/2000/svg" viewBox="0 0 683.16 413.65"><defs><style>.cls-1{fill:#f2f2f2;}.cls-1,.cls-10{opacity:0.5;}.cls-2,.cls-6{opacity:0.3;}.cls-10,.cls-3,.cls-6,.cls-8{fill:#e5e5e5;}.cls-11,.cls-14,.cls-4{fill:#14223c;}.cls-5{fill:#fff;}.cls-11,.cls-5,.cls-8,.cls-9{stroke:#14223c;}.cls-11,.cls-5,.cls-7,.cls-8,.cls-9{stroke-linecap:round;stroke-linejoin:round;stroke-width:2px;}.cls-12,.cls-7,.cls-9{fill:none;}.cls-7{stroke:#e5e5e5;}.cls-12{stroke:#ccc;stroke-miterlimit:10;}.cls-13{fill:#ccc;}.cls-14{font-size:18px;font-family:OpenSans-Bold, Open Sans;font-weight:700;}</style></defs><title>Main</title><g id="Layer_2" data-name="Layer 2"><g id="Layer_1-2" data-name="Layer 1"><circle class="cls-1" cx="341.58" cy="113.72" r="94.54"/><g class="cls-2"><path class="cls-3" d="M108.32,322.11a3.12,3.12,0,0,0-3.1,3.52h0l.45,3.53.44,3.52.45,3.53.45,3.52.45,3.53.45,3.52.45,3.53.44,3.52.45,3.52.45,3.53.45,3.52.45,3.53.45,3.52.44,3.53.45,3.52.45,3.53.45,3.52.45,3.52.44,3.53.45,3.52.45,3.53.45,3.52.19,1.5h46l.19-1.5.45-3.52.45-3.53.45-3.52.44-3.53.45-3.52.45-3.52.45-3.53L165,375l.44-3.53.45-3.52.45-3.53.45-3.52.45-3.53.45-3.52.44-3.52.45-3.53.45-3.52.45-3.53.45-3.52.45-3.53.44-3.52.45-3.53h0a3.12,3.12,0,0,0-3.1-3.52Zm57.62,14.1-.45,3.52-.45,3.53-.45,3.52-.45,3.53-.44,3.52-.45,3.52-.45,3.53-.45,3.52-.45,3.53-.44,3.52L161,375l-.45,3.52-.45,3.53-.45,3.52-.45,3.52-.44,3.53-.45,3.52-.45,3.53-.13,1h-39l-.13-1-.45-3.53-.45-3.52-.44-3.53-.45-3.52-.45-3.52L116,378.5l-.45-3.52-.45-3.53-.44-3.52-.45-3.53-.45-3.52-.45-3.53-.45-3.52-.44-3.52-.45-3.53-.45-3.52-.45-3.53-.45-3.52-.44-3.53-.45-3.52-.39-3h57.91l-.39,3-.45,3.52Z"/><path class="cls-3" d="M168.22,322.11a3.12,3.12,0,0,1,3.1,3.52h0l-.45,3.53-.44,3.52H106.11l-.44-3.52-.45-3.53h0a3.12,3.12,0,0,1,3.1-3.52Z"/><polygon class="cls-3" points="170.87 329.16 170.43 332.68 106.11 332.68 105.67 329.16 170.87 329.16"/><polygon class="cls-3" points="169.98 336.21 169.53 339.73 107.01 339.73 106.56 336.21 169.98 336.21"/><polygon class="cls-3" points="169.08 343.26 168.63 346.78 107.91 346.78 107.46 343.26 169.08 343.26"/><polygon class="cls-3" points="168.18 350.31 167.74 353.83 108.8 353.83 108.36 350.31 168.18 350.31"/><polygon class="cls-3" points="167.29 357.35 166.84 360.88 109.7 360.88 109.25 357.35 167.29 357.35"/><polygon class="cls-3" points="166.39 364.4 165.94 367.93 110.6 367.93 110.15 364.4 166.39 364.4"/><polygon class="cls-3" points="165.49 371.45 165.05 374.98 111.49 374.98 111.05 371.45 165.49 371.45"/><polygon class="cls-3" points="164.6 378.5 164.15 382.03 112.39 382.03 111.94 378.5 164.6 378.5"/><polygon class="cls-3" points="163.7 385.55 163.25 389.07 113.29 389.07 112.84 385.55 163.7 385.55"/><polygon class="cls-3" points="162.81 392.6 162.36 396.12 114.18 396.12 113.73 392.6 162.81 392.6"/><polygon class="cls-3" points="161.91 399.65 161.46 403.17 115.08 403.17 114.63 399.65 161.91 399.65"/></g><rect class="cls-4" x="314.69" y="330.25" width="14.01" height="4.33" rx="2.17" ry="2.17"/><line class="cls-5" x1="321.31" y1="332.42" x2="338.82" y2="332.42"/><rect class="cls-6" y="33.01" width="85.34" height="7.09"/><rect class="cls-3" y="18.82" width="180.94" height="7.09"/><rect class="cls-3" y="197.68" width="180.94" height="7.09"/><rect class="cls-6" y="48.1" width="85.34" height="7.09"/><rect class="cls-6" y="63.19" width="85.34" height="7.09"/><rect class="cls-6" y="78.28" width="85.34" height="7.09"/><rect class="cls-6" y="93.36" width="85.34" height="7.09"/><rect class="cls-6" y="108.45" width="85.34" height="7.09"/><rect class="cls-6" y="123.54" width="85.34" height="7.09"/><rect class="cls-6" y="138.63" width="85.34" height="7.09"/><rect class="cls-6" y="153.72" width="85.34" height="7.09"/><rect class="cls-6" y="168.81" width="85.34" height="7.09"/><rect class="cls-6" y="183.89" width="85.34" height="7.09"/><rect class="cls-6" x="95.6" y="33.01" width="85.34" height="7.09"/><rect class="cls-6" x="95.6" y="48.1" width="85.34" height="7.09"/><rect class="cls-6" x="95.6" y="63.19" width="85.34" height="7.09"/><rect class="cls-6" x="95.6" y="78.28" width="85.34" height="7.09"/><rect class="cls-6" x="95.6" y="93.36" width="85.34" height="7.09"/><rect class="cls-6" x="95.6" y="108.45" width="85.34" height="7.09"/><rect class="cls-6" x="95.6" y="123.54" width="85.34" height="7.09"/><rect class="cls-6" x="95.6" y="138.63" width="85.34" height="7.09"/><rect class="cls-6" x="95.6" y="153.72" width="85.34" height="7.09"/><rect class="cls-6" x="95.6" y="168.81" width="85.34" height="7.09"/><rect class="cls-6" x="95.6" y="183.89" width="85.34" height="7.09"/><rect class="cls-6" x="502.22" y="33.01" width="85.34" height="7.09"/><rect class="cls-3" x="502.22" y="18.82" width="180.94" height="7.09"/><rect class="cls-3" x="502.22" y="197.68" width="180.94" height="7.09"/><rect class="cls-6" x="502.22" y="48.1" width="85.34" height="7.09"/><rect class="cls-6" x="502.22" y="63.19" width="85.34" height="7.09"/><rect class="cls-6" x="502.22" y="78.28" width="85.34" height="7.09"/><rect class="cls-6" x="502.22" y="93.36" width="85.34" height="7.09"/><rect class="cls-6" x="502.22" y="108.45" width="85.34" height="7.09"/><rect class="cls-6" x="502.22" y="123.54" width="85.34" height="7.09"/><rect class="cls-6" x="502.22" y="138.63" width="85.34" height="7.09"/><rect class="cls-6" x="502.22" y="153.72" width="85.34" height="7.09"/><rect class="cls-6" x="502.22" y="168.81" width="85.34" height="7.09"/><rect class="cls-6" x="502.22" y="183.89" width="85.34" height="7.09"/><rect class="cls-6" x="597.82" y="33.01" width="85.34" height="7.09"/><rect class="cls-6" x="597.82" y="48.1" width="85.34" height="7.09"/><rect class="cls-6" x="597.82" y="63.19" width="85.34" height="7.09"/><rect class="cls-6" x="597.82" y="78.28" width="85.34" height="7.09"/><rect class="cls-6" x="597.82" y="93.36" width="85.34" height="7.09"/><rect class="cls-6" x="597.82" y="108.45" width="85.34" height="7.09"/><rect class="cls-6" x="597.82" y="123.54" width="85.34" height="7.09"/><rect class="cls-6" x="597.82" y="138.63" width="85.34" height="7.09"/><rect class="cls-6" x="597.82" y="153.72" width="85.34" height="7.09"/><rect class="cls-6" x="597.82" y="168.81" width="85.34" height="7.09"/><rect class="cls-6" x="597.82" y="183.89" width="85.34" height="7.09"/><path class="cls-3" d="M30,246.73H653.27a0,0,0,0,1,0,0v0a9.5,9.5,0,0,1-9.5,9.5H39.5a9.5,9.5,0,0,1-9.5-9.5v0a0,0,0,0,1,0,0Z"/><rect class="cls-6" x="30" y="403.15" width="623.27" height="9.5"/><path class="cls-7" d="M422.82,220.17v90.56a11,11,0,0,0,11,11h79.76a11,11,0,0,0,11-11"/><rect class="cls-5" x="30" y="227.73" width="623.27" height="19"/><polygon class="cls-8" points="381.3 382.83 380.66 387.11 379.16 396.9 366.46 396.9 367.27 387.11 367.66 382.83 381.3 382.83"/><path class="cls-5" d="M377.21,298.91l-9.55,83.92h17.62l17-96a12,12,0,0,0-11.82-13.73H377.55"/><path class="cls-5" d="M385.64,404.77h-1.53A5.07,5.07,0,0,1,379,399.7l.12-2.8h-12.7l-1.37,15.75h29.1C394.19,408.3,390,404.77,385.64,404.77Z"/><polygon class="cls-5" points="385.28 382.83 384.71 387.11 367.27 387.11 367.66 382.83 385.28 382.83"/><path class="cls-4" d="M369.26,388.62c0-1.47,1.19-1.51,2.67-1.51s2.67,0,2.67,1.51a2.67,2.67,0,1,1-5.33,0Z"/><path class="cls-4" d="M378.71,396.08a2.67,2.67,0,0,0-5.19.87c0,.13,0,.25,0,.37Z"/><polyline class="cls-5" points="343.27 297.13 292.27 297.13 292.27 273.13 321.27 273.13"/><polygon class="cls-8" points="302.06 382.83 302.7 387.11 304.2 396.9 316.9 396.9 316.09 387.11 315.7 382.83 302.06 382.83"/><path class="cls-5" d="M292.89,273.13a12,12,0,0,0-11.82,13.73l17,96H315.7l-9.55-83.93"/><path class="cls-5" d="M297.73,404.77h1.53a5.07,5.07,0,0,0,5.07-5.07l-.12-2.8h12.7l1.37,15.75h-29.1C289.17,408.3,293.38,404.77,297.73,404.77Z"/><polygon class="cls-5" points="298.08 382.83 298.65 387.11 316.09 387.11 315.7 382.83 298.08 382.83"/><path class="cls-4" d="M314.1,388.62c0-1.47-1.19-1.51-2.67-1.51s-2.67,0-2.67,1.51a2.67,2.67,0,0,0,5.33,0Z"/><path class="cls-4" d="M304.65,396.08a2.67,2.67,0,0,1,5.19.87c0,.13,0,.25,0,.37Z"/><rect class="cls-5" x="335.29" y="258.42" width="12.89" height="90.31" rx="6.45" ry="6.45" transform="translate(38.16 645.31) rotate(-90)"/><rect class="cls-8" x="126.35" y="84.94" width="169.19" height="119.89" rx="2" ry="2"/><path class="cls-8" d="M187.41,204.83h45.06a2,2,0,0,1,2,2v20.9a0,0,0,0,1,0,0H187.41a0,0,0,0,1,0,0v-22.9A0,0,0,0,1,187.41,204.83Z"/><path class="cls-8" d="M198.2,204.83h45.06a2,2,0,0,1,2,2v20.9a0,0,0,0,1,0,0H198.2a0,0,0,0,1,0,0v-22.9A0,0,0,0,1,198.2,204.83Z"/><rect class="cls-5" x="137.14" y="84.94" width="169.19" height="119.89" rx="2" ry="2"/><rect class="cls-4" x="198.2" y="204.83" width="47.06" height="4.79"/><rect class="cls-9" x="143.86" y="92.78" width="155.74" height="93" rx="2" ry="2"/><rect class="cls-10" x="179.23" y="65.41" width="85" height="147.74" rx="2" ry="2" transform="translate(82.45 361.01) rotate(-90)"/><rect class="cls-10" x="375.03" y="65.41" width="85" height="147.74" rx="2" ry="2" transform="translate(278.25 556.81) rotate(-90)"/><polygon class="cls-5" points="254.86 227.73 237.32 227.73 233.81 190.14 258.37 190.14 254.86 227.73"/><polygon class="cls-8" points="255.26 181.78 257.5 185.78 234.68 185.78 236.91 181.78 255.26 181.78"/><rect class="cls-8" x="231.32" y="185.78" width="29.53" height="4.36"/><path class="cls-5" d="M266.35,223.23h79.22a0,0,0,0,1,0,0v4.54a0,0,0,0,1,0,0H261.81a0,0,0,0,1,0,0v0A4.54,4.54,0,0,1,266.35,223.23Z"/><rect class="cls-8" x="343.73" y="84.94" width="169.19" height="119.89" rx="2" ry="2"/><path class="cls-8" d="M404.79,204.83h47.06a0,0,0,0,1,0,0v20.9a2,2,0,0,1-2,2H404.79a0,0,0,0,1,0,0v-22.9A0,0,0,0,1,404.79,204.83Z" transform="translate(856.65 432.56) rotate(-180)"/><path class="cls-8" d="M394,204.83h47.06a0,0,0,0,1,0,0v20.9a2,2,0,0,1-2,2H394a0,0,0,0,1,0,0v-22.9A0,0,0,0,1,394,204.83Z" transform="translate(835.06 432.56) rotate(-180)"/><rect class="cls-5" x="332.94" y="84.94" width="169.19" height="119.89" rx="2" ry="2"/><rect class="cls-4" x="394" y="204.68" width="47.06" height="4.79" transform="translate(835.06 414.14) rotate(-180)"/><rect class="cls-9" x="339.66" y="92.78" width="155.74" height="93" rx="2" ry="2" transform="translate(835.06 278.57) rotate(-180)"/><path class="cls-5" d="M423.92,220.34h5.21a7.39,7.39,0,0,1,7.39,7.39v0a0,0,0,0,1,0,0h-20a0,0,0,0,1,0,0v0A7.39,7.39,0,0,1,423.92,220.34Z"/><path class="cls-8" d="M283.44,241.61a11.24,11.24,0,0,1-12.4-16l28.83-59.43a11.24,11.24,0,1,1,20.15,10l-28.83,59.43A11.22,11.22,0,0,1,283.44,241.61Z"/><path class="cls-8" d="M399.83,241.61a11.24,11.24,0,0,0,12.4-16L383.4,166.2a11.24,11.24,0,1,0-20.15,10l28.83,59.43A11.22,11.22,0,0,0,399.83,241.61Z"/><path class="cls-5" d="M370.13,108.36v0a5.21,5.21,0,0,1-5.22,5.21h-2.16v3.06a21.06,21.06,0,0,1-12,19v6.26a9.1,9.1,0,1,1-18.21,0v-6.25a21.08,21.08,0,0,1-12-19v-3.07h-2.15a5.22,5.22,0,1,1,0-10.43h2.15V94.8a21.09,21.09,0,0,1,21.06-21.05h0a21.07,21.07,0,0,1,21,21.11v8.3h2.15A5.2,5.2,0,0,1,370.13,108.36Z"/><path class="cls-8" d="M357.58,150.95l-3.42-7.43H342.83l-13.76,0L325.65,151l-20.17,9.91a12.53,12.53,0,0,0-7,11.88l6.16,71,38.18,0h35.89l6-71a12.53,12.53,0,0,0-7-11.88Z"/><path class="cls-5" d="M357.72,151h0a30.3,30.3,0,0,0-32.06,0h0v-7.43a30.3,30.3,0,0,1,32.07,0Z"/><line class="cls-8" x1="362.75" y1="114.6" x2="362.75" y2="112.89"/><line class="cls-8" x1="320.6" y1="114.6" x2="320.6" y2="112.89"/><line class="cls-9" x1="335.87" y1="160.98" x2="346.87" y2="160.98"/><path class="cls-8" d="M362.81,104.19a15.93,15.93,0,0,1-1.28,3.64c-.87,1.36-2.87,11.92-3.85,13.14l-6.09,7.51a8.34,8.34,0,0,1-6.48,3h-6.8a8.34,8.34,0,0,1-6.48-3L325.74,121c-.64-.79-2.05-6.11-3-9.72a32.2,32.2,0,0,0-1.42-4.56,8.68,8.68,0,0,1-.62-2.5s-1.59-15.9-1.52-17.16a17,17,0,0,1,.41-2.87c.06-.21.11-.41.17-.62s.11-.37.17-.54l.08-.24c0-.14.1-.29.16-.43a7.26,7.26,0,0,1,.35-.87c.07-.16.14-.32.21-.46a.21.21,0,0,0,0-.08c.1-.2.2-.37.29-.56A15.85,15.85,0,0,1,323,77.54c.13-.16.27-.32.42-.47s.34-.37.52-.54l.1-.1c1.2-1.17,7.93-6.8,21.64-3.6,5.81,1.36,3.49-6,3.49-6a89.75,89.75,0,0,1,9.45,8.7,29.16,29.16,0,0,1,4.52,5.87c.06.11.11.22.16.33l.12.29a15.88,15.88,0,0,1,1.13,5.32v0C364.63,88.67,362.81,104.19,362.81,104.19Z"/><path class="cls-8" d="M353.25,77.2S354,73,349.19,66.87"/><path class="cls-8" d="M331.24,76s-6.9,3.5-8.28,9.17"/><path class="cls-5" d="M341.64,169h0a46.1,46.1,0,0,1,46.1,46.1v72.06a10,10,0,0,1-10,10h-72.2a10,10,0,0,1-10-10V215.07A46.1,46.1,0,0,1,341.64,169Z"/><path class="cls-3" d="M324.17,196.43h66.55a5,5,0,0,1,5,5v63.23a5,5,0,0,1-5,5H324.17A36.62,36.62,0,0,1,287.55,233v0A36.62,36.62,0,0,1,324.17,196.43Z" transform="translate(574.68 -108.59) rotate(90)"/><path class="cls-9" d="M350.46,323.93H332.81l-5-5v-8.82h27.64v8.82Z"/><rect class="cls-5" x="336.31" y="250.69" width="10.66" height="59.42"/><rect class="cls-5" x="336.31" y="324.11" width="10.66" height="88.54"/><rect class="cls-5" x="327.81" y="236.87" width="27.64" height="13.82" rx="6.91" ry="6.91"/><line class="cls-5" x1="305.99" y1="297.13" x2="295.53" y2="297.13"/><line class="cls-5" x1="387.4" y1="297.13" x2="376.95" y2="297.13"/><line class="cls-9" x1="401.58" y1="412.65" x2="414.72" y2="412.65"/><line class="cls-9" x1="259.51" y1="412.65" x2="414.72" y2="412.65"/><line class="cls-9" x1="419.76" y1="412.65" x2="423.76" y2="412.65"/><path class="cls-5" d="M338.23,374.76h0a6.45,6.45,0,0,1,6.45,6.45v56.44a6.45,6.45,0,0,1-6.45,6.45h0a0,0,0,0,1,0,0V374.76A0,0,0,0,1,338.23,374.76Z" transform="translate(-67.97 750.88) rotate(-90)"/><rect class="cls-3" x="431.69" y="105.73" width="52" height="38" rx="1.25" ry="1.25"/><rect class="cls-5" x="435.69" y="100.73" width="52" height="38" rx="1.25" ry="1.25"/><path class="cls-8" d="M487.69,102v3.75h-52V102a1.25,1.25,0,0,1,1.25-1.25h49.5A1.25,1.25,0,0,1,487.69,102Z"/><polygon class="cls-4" points="473.02 133.73 476.9 148.58 480.93 145.99 484.94 143.42 473.02 133.73"/><rect class="cls-4" x="481.04" y="142.91" width="1.43" height="8.75" transform="translate(-2.99 284.41) rotate(-32.79)"/><circle class="cls-5" cx="568.01" cy="201.78" r="2.74"/><path class="cls-5" d="M580.12,226.56a3.1,3.1,0,0,1-4.2-1.82l-4.91-14-3.32-9.44,3.26-9.47,3.32,9.44,7,19.81.56,1.6A3.11,3.11,0,0,1,580.12,226.56Z"/><circle class="cls-5" cx="586.82" cy="144.68" r="2.74"/><path class="cls-5" d="M593.28,146.06l-.56,1.6-18.45,53.65L571,210.78l-3.28,9.56h-6.57l6.54-19,3.26-9.47L587.42,144a3.1,3.1,0,0,1,5.87,2Z"/><path class="cls-5" d="M591.62,147.78h0a3.1,3.1,0,0,1-4.2-1.81l-15.77-45.35-1.38-4-1.39-4,4.87-4.87,1.39,4,1.38,4,16.2,46.59.55,1.6A3.1,3.1,0,0,1,591.62,147.78Z"/><line class="cls-9" x1="558.4" y1="108.52" x2="580.85" y2="86.06"/><path class="cls-8" d="M555.71,105.82l19.77-19.77a3.8,3.8,0,0,1,5.37,0h0a3.8,3.8,0,0,1,0,5.37l-20.73,20.73Z"/><path class="cls-5" d="M562.72,118.27,547,103.6l7.24-7.24a1.76,1.76,0,0,1,1.32-.53,15.22,15.22,0,0,1,14.16,14.68,1.76,1.76,0,0,1-.53,1.32Z"/><path class="cls-5" d="M563.11,132.53,532.29,104.7a20.12,20.12,0,0,1,15.36-7.18c11.3,0,20.45,9.48,20.45,21.16A21.51,21.51,0,0,1,563.11,132.53Z"/><path class="cls-8" d="M563.08,132.63c-4.51,4.83-15,2.41-23.36-5.42-8.2-7.64-11.4-17.62-7.34-22.58.1-.12.2-.23.31-.35,3.31-3.55,9.83-3.18,16.38.36a35.08,35.08,0,0,1,12.64,11.88C565.59,122.74,566.35,129.11,563.08,132.63Z"/><path class="cls-5" d="M561.71,116.52A9,9,0,1,1,547,106.44l.23-.26a8.94,8.94,0,0,1,1.88-1.54,35.08,35.08,0,0,1,12.64,11.88Z"/><line class="cls-9" x1="573.76" y1="87.77" x2="568.89" y2="92.64"/><path class="cls-8" d="M538.48,220.17h48.43a6.18,6.18,0,0,1,6.18,6.18v1.42a0,0,0,0,1,0,0h-60.8a0,0,0,0,1,0,0v-1.42a6.18,6.18,0,0,1,6.18-6.18Z"/><circle class="cls-5" cx="593.45" cy="144.68" r="2.74"/><circle class="cls-5" cx="574.64" cy="201.78" r="2.74"/><path class="cls-8" d="M543,217.48h7.83a1.67,1.67,0,0,1,1.67,1.67v1a0,0,0,0,1,0,0H541.31a0,0,0,0,1,0,0v-1A1.67,1.67,0,0,1,543,217.48Z"/><rect class="cls-7" x="510.53" y="281.52" width="50.6" height="28.79" rx="2" ry="2"/><rect class="cls-7" x="549.88" y="288.14" width="5.62" height="15.54" rx="1" ry="1"/><rect class="cls-7" x="538.64" y="288.14" width="5.62" height="15.54" rx="1" ry="1"/><path class="cls-7" d="M532.78,300.19h0l-6-10.58h0a2.45,2.45,0,0,0-4.51.07l-5.92,10.48h0a2.42,2.42,0,0,0-.25,1.07,2.45,2.45,0,0,0,2.45,2.45h12a2.44,2.44,0,0,0,2.21-3.49Z"/><line class="cls-7" x1="524.58" y1="310.73" x2="524.58" y2="303.68"/><rect class="cls-3" x="196.69" y="102.73" width="42" height="31" rx="1.02" ry="1.02"/><rect class="cls-5" x="200.69" y="98.73" width="42" height="31" rx="1.02" ry="1.02"/><line class="cls-9" x1="204.52" y1="124.73" x2="238.86" y2="124.73"/><path class="cls-8" d="M242.69,99.75v5h-42v-5a1,1,0,0,1,1-1h40A1,1,0,0,1,242.69,99.75Z"/><rect class="cls-3" x="247.69" y="102.73" width="42" height="31" rx="1.02" ry="1.02"/><rect class="cls-5" x="251.69" y="98.73" width="42" height="31" rx="1.02" ry="1.02"/><path class="cls-8" d="M293.69,99.75v5h-42v-5a1,1,0,0,1,1-1h40A1,1,0,0,1,293.69,99.75Z"/><rect class="cls-3" x="147.69" y="150.73" width="42" height="31" rx="1.02" ry="1.02"/><rect class="cls-5" x="150.69" y="146.73" width="42" height="31" rx="1.02" ry="1.02"/><path class="cls-8" d="M192.69,147.75v5h-42v-5a1,1,0,0,1,1-1h40A1,1,0,0,1,192.69,147.75Z"/><rect class="cls-5" x="120.69" y="223.23" width="32" height="4.5" rx="2.25" ry="2.25"/><polygon class="cls-8" points="604.82 183.31 609.47 181.47 604.56 175.88 604.82 183.31"/><line class="cls-9" x1="605.26" y1="178.54" x2="605.88" y2="178.29"/><line class="cls-9" x1="604.82" y1="183.31" x2="609.47" y2="181.46"/><path class="cls-9" d="M621.67,222.66h5a0,0,0,0,1,0,0v2.5a2.5,2.5,0,0,1-2.5,2.5h0a2.5,2.5,0,0,1-2.5-2.5v-2.5A0,0,0,0,1,621.67,222.66Z" transform="translate(-39.02 246.75) rotate(-21.7)"/><rect class="cls-8" x="612.7" y="180.85" width="5" height="43.54" transform="translate(-31.32 241.83) rotate(-21.7)"/><polyline class="cls-8" points="638.75 180.6 636.39 179.18 628.56 192.19"/><polygon class="cls-5" points="613.96 221.75 618.24 224.33 635.23 196.13 633.09 194.84 630.94 193.56 613.96 221.75"/><path class="cls-8" d="M630.94,193.55l4.28,2.58L643,183.3a2.53,2.53,0,0,0-.78-3.55h0a2.5,2.5,0,0,0-3.43.85Z"/><path class="cls-11" d="M614.81,222.68h0a2.5,2.5,0,0,1,2.5,2.5v2.5a0,0,0,0,1,0,0h-5a0,0,0,0,1,0,0v-2.5A2.5,2.5,0,0,1,614.81,222.68Z" transform="translate(1025.27 735.3) rotate(-148.94)"/><rect class="cls-9" x="610.67" y="197.68" width="25.23" height="30.05"/><rect class="cls-5" x="608.6" y="197.68" width="29.38" height="4.36"/><polygon class="cls-8" points="217.81 119.11 217.81 111.34 225.57 115.23 217.81 119.11"/><circle class="cls-4" cx="230.82" cy="124.73" r="1.87"/><rect class="cls-3" x="440.19" y="110.12" width="42.75" height="4.11"/><rect class="cls-3" x="255.57" y="109.06" width="34.12" height="4.11"/><rect class="cls-3" x="255.57" y="115.36" width="34.12" height="2.06"/><rect class="cls-3" x="154.63" y="156.45" width="6.31" height="2.06"/><rect class="cls-3" x="163.78" y="156.45" width="6.31" height="2.06"/><rect class="cls-3" x="172.94" y="156.45" width="6.31" height="2.06"/><rect class="cls-3" x="182.1" y="156.45" width="6.31" height="2.06"/><rect class="cls-3" x="154.63" y="161.2" width="6.31" height="6.81"/><rect class="cls-3" x="163.78" y="161.2" width="24.62" height="2.06"/><rect class="cls-3" x="163.78" y="165.95" width="24.97" height="2.06"/><rect class="cls-3" x="154.63" y="170.7" width="34.12" height="2.06"/><rect class="cls-3" x="255.57" y="119.61" width="17.12" height="2.06"/><rect class="cls-3" x="255.57" y="123.86" width="17.12" height="2.06"/><rect class="cls-3" x="440.19" y="129.37" width="27.88" height="4.11"/><rect class="cls-3" x="470.44" y="129.37" width="12.75" height="4.11"/><rect class="cls-3" x="440.19" y="116.39" width="12.75" height="10.73"/><rect class="cls-3" x="455.32" y="116.39" width="27.63" height="10.73"/><rect class="cls-3" x="274.91" y="119.61" width="14.78" height="6.3"/><path class="cls-5" d="M42.73,216.2H94.66a6.53,6.53,0,0,0,0,11.53H42.73A5.76,5.76,0,0,1,37,222h0A5.76,5.76,0,0,1,42.73,216.2Z"/><line class="cls-12" x1="91.43" y1="220.28" x2="37.5" y2="220.28"/><line class="cls-12" x1="91.43" y1="223.65" x2="37.5" y2="223.65"/><path class="cls-8" d="M40.93,200.9H94.66v3.78H40.93A1.89,1.89,0,0,1,39,202.79h0A1.89,1.89,0,0,1,40.93,200.9Z"/><path class="cls-5" d="M99.78,214.31a16,16,0,0,0,.58,1.9H44.83A2.16,2.16,0,0,1,42.67,214v-7.21a2.16,2.16,0,0,1,2.16-2.16h55.53a15.83,15.83,0,0,0-.58,1.89c-.09.33-.16.66-.22,1s-.08.46-.11.69-.08.67-.1,1,0,.45,0,.68,0,.33,0,.5,0,.34,0,.5,0,.46,0,.69,0,.67.1,1,.07.45.11.68S99.69,214,99.78,214.31Z"/><line class="cls-9" x1="42.67" y1="223.65" x2="51.33" y2="223.65"/><line class="cls-9" x1="94.66" y1="200.9" x2="96.01" y2="200.9"/><path class="cls-13" d="M99.45,208.26c0,.33-.08.67-.1,1H43.67v-1Z"/><path class="cls-13" d="M99.45,212.63H43.67v-1H99.35C99.37,212,99.4,212.3,99.45,212.63Z"/><polygon class="cls-8" points="49.48 234.31 47 232.57 44.52 234.31 44.52 223.65 49.48 223.65 49.48 234.31"/><path class="cls-9" d="M42.73,216.2H94.66a6.53,6.53,0,0,0,0,11.53H42.73A5.76,5.76,0,0,1,37,222h0A5.76,5.76,0,0,1,42.73,216.2Z"/><path class="cls-9" d="M99.78,214.31a16,16,0,0,0,.58,1.9H44.83A2.16,2.16,0,0,1,42.67,214v-7.21a2.16,2.16,0,0,1,2.16-2.16h55.53a15.83,15.83,0,0,0-.58,1.89c-.09.33-.16.66-.22,1s-.08.46-.11.69-.08.67-.1,1,0,.45,0,.68,0,.33,0,.5,0,.34,0,.5,0,.46,0,.69,0,.67.1,1,.07.45.11.68S99.69,214,99.78,214.31Z"/><circle class="cls-3" cx="246.09" cy="204.83" r="5.77"/><path class="cls-5" d="M289.41,55.26A18.19,18.19,0,1,0,276.16,66a54.69,54.69,0,0,1,10.41-1.14h2.84C285.81,61.21,289.41,55.26,289.41,55.26Z"/><path class="cls-5" d="M359.77,19.19A18.19,18.19,0,1,0,334.94,36.1l6.65,6.65,6.65-6.65A18.18,18.18,0,0,0,359.77,19.19Z"/><path class="cls-5" d="M391.43,55.26A18.19,18.19,0,1,1,404.68,66a54.69,54.69,0,0,0-10.41-1.14h-2.84C395,61.21,391.43,55.26,391.43,55.26Z"/><text class="cls-14" transform="translate(267.69 54.81)">f</text><text class="cls-14" transform="translate(403.69 54.81)">t</text><text class="cls-14" transform="translate(335.87 23.04)">g</text><path class="cls-9" d="M109.28,222.79a13.31,13.31,0,0,1,13.15-11.34,13.54,13.54,0,0,1,1.93.14"/><path class="cls-9" d="M123.23,219.51a5.31,5.31,0,0,0-6,4.47"/><path class="cls-9" d="M109.28,222.79a13.31,13.31,0,0,1,13.15-11.34,13.54,13.54,0,0,1,1.93.14"/><path class="cls-9" d="M113.24,223.39a9.31,9.31,0,0,1,10.56-7.84"/><path class="cls-9" d="M123.23,219.51a5.31,5.31,0,0,0-6,4.47"/></g></g></svg>