<?xml version="1.0" encoding="utf-8"?>
<!-- Generator: Adobe Illustrator 22.0.1, SVG Export Plug-In . SVG Version: 6.00 Build 0)  -->
<svg version="1.1" id="Layer_1" xmlns="http://www.w3.org/2000/svg" xmlns:xlink="http://www.w3.org/1999/xlink" x="0px" y="0px"
	 viewBox="0 0 702 431.4" style="enable-background:new 0 0 702 431.4;" xml:space="preserve">
<style type="text/css">
	.st0{fill:none;stroke:#E5E5E5;stroke-width:2;stroke-linecap:round;stroke-linejoin:round;}
	.st1{fill:#E5E5E5;}
	.st2{fill:none;stroke:#E5E5E5;stroke-width:2;stroke-miterlimit:10;}
	.st3{fill:#E5E5E5;stroke:#14223C;stroke-width:2;stroke-linecap:round;stroke-linejoin:round;}
	.st4{fill:#FFFFFF;stroke:#14223C;stroke-width:2;stroke-linecap:round;stroke-linejoin:round;}
	.st5{fill:none;stroke:#14223C;stroke-width:2;stroke-linecap:round;stroke-linejoin:round;}
	.st6{fill:none;stroke:#14223C;stroke-width:1.74;stroke-linecap:round;stroke-linejoin:round;}
	.st7{fill:#14223C;}
	.st8{fill:none;stroke:#14223C;stroke-width:2;stroke-linejoin:round;}
	.st9{fill:#FFFFFF;stroke:#14223C;stroke-width:1.84;stroke-linecap:round;stroke-linejoin:round;}
	.st10{fill:#EEEEEE;}
	.st11{fill:none;}
	.st12{fill:#FFFFFF;}
	.st13{opacity:0.48;fill:#E5E5E5;enable-background:new    ;}
	.st14{opacity:0.36;}
	.st15{opacity:0.3;fill:#E5E5E5;enable-background:new    ;}
	
		.st16{opacity:0.5;fill:none;stroke:#E5E5E5;stroke-width:4;stroke-linecap:round;stroke-linejoin:round;enable-background:new    ;}
	.st17{opacity:0.4;fill:#E5E5E5;enable-background:new    ;}
	.st18{opacity:0.21;fill:#E5E5E5;enable-background:new    ;}
	.st19{fill:#FFFFFF;stroke:#14223C;stroke-width:1.97;stroke-linecap:round;stroke-linejoin:round;}
	.st20{fill:#E5E5E5;stroke:#FFFFFF;stroke-width:2;stroke-linecap:round;stroke-linejoin:round;}
	.st21{fill:none;stroke:#E5E5E5;stroke-width:2;stroke-linecap:square;stroke-linejoin:round;}
	.st22{fill:#CECECE;stroke:#14223C;stroke-width:2;stroke-linecap:round;stroke-linejoin:round;}
</style>
<title>Normal</title>
<g id="Layer_2_1_">
	<g id="Layer_1-2">
		<path class="st0" d="M170.2,308.2H278c6.1,0,11-4.9,11-11l0,0"/>
		<path class="st0" d="M276.9,268h46.6c1.1,0,2,0.9,2,2v24.8c0,1.1-0.9,2-2,2h-46.6c-1.1,0-2-0.9-2-2V270
			C274.9,268.8,275.8,268,276.9,268z"/>
		<path class="st0" d="M315.3,274.6h3.6c0.6,0,1,0.4,1,1v13.5c0,0.6-0.4,1-1,1h-3.6c-0.6,0-1-0.4-1-1v-13.5
			C314.3,275,314.7,274.6,315.3,274.6z"/>
		<path class="st0" d="M304,274.6h3.6c0.6,0,1,0.4,1,1v13.5c0,0.6-0.4,1-1,1H304c-0.6,0-1-0.4-1-1v-13.5
			C303,275,303.5,274.6,304,274.6z"/>
		<path class="st0" d="M297.1,286.6L297.1,286.6l-6-10.6l0,0c-0.5-1.2-2-1.8-3.2-1.2c-0.6,0.3-1,0.7-1.3,1.3l-5.9,10.5l0,0
			c-0.2,0.3-0.2,0.7-0.2,1.1c0,1.4,1.1,2.5,2.4,2.5h0h12c1.3,0,2.4-1.1,2.4-2.4C297.4,287.3,297.3,287,297.1,286.6L297.1,286.6z"/>
		<line class="st0" x1="289" y1="297.2" x2="289" y2="290.1"/>
		<path class="st1" d="M502.6,430.4L502.6,430.4L502.6,430.4h-99.5l0,0l0,0c0-6.5,5.3-11.7,11.7-11.7h76.1
			C497.3,418.7,502.6,423.9,502.6,430.4z"/>
		<path class="st1" d="M440,316.5h24.7l0,0l0,0c0,6.1-4.9,11-11,11H451C445,327.5,440,322.5,440,316.5L440,316.5L440,316.5z"/>
		<rect x="446.5" y="316.5" class="st1" width="11.7" height="108.5"/>
		<path class="st1" d="M424.5,329.8h14.7c1.2,0,2.2,1,2.2,2.2v0c0,1.2-1,2.2-2.2,2.2h-14.7c-1.2,0-2.2-1-2.2-2.2v0
			C422.4,330.8,423.3,329.8,424.5,329.8z"/>
		<line class="st2" x1="431.9" y1="332" x2="449.4" y2="332"/>
		<path class="st3" d="M523,192.1l-20,124.3H396.7c-3,0-5.5-2.5-5.5-5.5s2.5-5.5,5.5-5.5h65.5l27.4-113.4L523,192.1z"/>
		<path class="st3" d="M503,316.5L503,316.5z"/>
		<path class="st4" d="M525,192.1h-2l-17.2,107.2c-0.6,3.6-3.6,6.2-7.2,6.2h-37.6c-2.9,0-5.4,2.1-5.7,5c-0.3,3,2,5.7,5,6
			c0.2,0,0.3,0,0.5,0h41.9h0.4l0,0h0.3h0.6l0.5-0.1l0.6-0.1l0.6-0.1l0.5-0.1l0.6-0.2l0.5-0.2l0.5-0.2l0.5-0.2l0.4-0.2l0.6-0.3
			l0.2-0.1c1.9-1.2,3.5-2.9,4.5-4.9c0.6-1.2,1.1-2.5,1.3-3.8c0-0.1,0-0.2,0.1-0.3l0,0l16.2-105.7c0.6-3.6-1.8-7-5.4-7.6
			C525.7,192.1,525.4,192.1,525,192.1z"/>
		<path class="st4" d="M350.3,211.8h-11c-1.7,0-3,1.3-3,3s1.3,3,3,3h6.5"/>
		<path class="st4" d="M489.8,172.7l-32.4,31l-7.8,8.4l-3.8,3.9l1.4,21.1l-21.4,0.2l-6.5,0.1c-7.8,0.2-14.2-6-14.4-13.7
			c0-0.4-0.1-0.7-0.2-1.1c0.1-1.5,0.5-3,1.1-4.4c0.2-0.4,0.4-0.8,0.6-1.2V217l4.4-4.7l1.1-1.1l28.1-29.7l3-3.3
			c3.3-3.5,7.8-5.5,12.6-5.5L489.8,172.7z"/>
		<line class="st2" x1="441.5" y1="215.3" x2="423.7" y2="200.1"/>
		<path class="st4" d="M450,214.8c0.9-1.6,1.1-3.5,0.4-5.2l-6.9,7.3C446.5,217.2,448.8,216.6,450,214.8z"/>
		<path class="st5" d="M506,231.7"/>
		<path class="st4" d="M462.5,172.7h29.6c6.6,0,12.4,4.6,13.9,11.1c0.4,1.5,0.5,3,0.3,4.5c0,0.1,5.6,2.5,5.6,2.6l-9.9,46.9
			l-2.2,25.7l-0.3,3.1l-0.9,10.4l-0.6,8.3c-0.9,11.5-10.5,20.3-22,20.4h-74.7l13.2-29.8h4.6c0,0,0-0.1,0-0.1c-0.3-3-0.2-6.1,0.4-9.1
			c0.5-2.4,1.2-4.8,2.2-7l0.9-2.1L446,205l-1.4-1.4"/>
		
			<ellipse transform="matrix(0.3608 -0.9326 0.9326 0.3608 82.3969 563.3206)" class="st1" cx="452.2" cy="221.5" rx="14.3" ry="9.7"/>
		<path class="st4" d="M417.2,275.6"/>
		<path class="st5" d="M483.3,231.6"/>
		<path class="st5" d="M468.1,246.9"/>
		<path class="st4" d="M417.2,275.6"/>
		<path class="st3" d="M485.5,172.7h6.6l-29.5,15.8c-0.9,0.5-2,0.2-2.5-0.7c-0.1-0.2-0.2-0.4-0.2-0.6l-0.7-4.3c0,0-1-5.7-1.5-9
			l-0.1-0.4v-0.7L485.5,172.7z"/>
		<path class="st4" d="M480.6,144.7V173l-14.2,7.7c-0.9,0.5-2,0.2-2.5-0.7c-0.1-0.2-0.2-0.4-0.2-0.6c-0.3-1.9-0.8-4.5-1.1-6.4v-28.3
			H480.6z"/>
		<path class="st4" d="M470,227.3L470,227.3c0,1.9-1.5,3.4-3.4,3.4h-5.1c-1.9,0-3.4-1.5-3.4-3.4v0c0-1.9,1.5-3.4,3.4-3.4h5.1
			C468.5,223.9,470,225.5,470,227.3z"/>
		<path class="st4" d="M495.1,203.7l7.8,8.4l3.8,3.9l0.7,0.8l19.3,20.6l6.5,0.1c7.8,0.2,14.2-6,14.4-13.7c0-0.4,0.1-0.7,0.2-1.1
			c-0.1-1.5-0.5-3-1.1-4.4c-0.2-0.4-0.4-0.8-0.6-1.2V217l-4.4-4.7l-1.1-1.1l-28.2-29.7l-3-3.3c-3.3-3.5-7.8-5.5-12.6-5.5h-4.7"/>
		<path class="st4" d="M523,213.4l-15.1,3.3l-0.5,0.1l-41,10.2l-2.4,10l63.4,0.6l6.4,0.1c7.6,0.2,13.9-5.8,14.1-13.4
			c0-0.5,0-1,0-1.5c-0.1-1.7-0.6-3.4-1.4-5c-0.1-0.2-0.2-0.4-0.3-0.6c-1.1-1.9-9.7-10.4-9.7-10.4"/>
		<path class="st4" d="M484.5,230.7c-0.6,0.6-1.4,1-2.3,1c-0.9,0-1.7-0.4-2.3-1l-4.7-4.7l-4.7,4.7c-0.6,0.6-1.4,1-2.3,1
			c-1.8,0-3.3-1.5-3.3-3.3c0-0.9,0.3-1.7,1-2.3l7.2-7.2c0.6-0.6,1.4-1,2.2-1c0.8,0.1,1.6,0.4,2.2,1l0.9,0.9l6.2,6.2
			C485.8,227.4,485.8,229.4,484.5,230.7z"/>
		<path class="st4" d="M490.7,230.7c-0.6,0.6-1.4,1-2.3,1c-0.9,0-1.7-0.4-2.3-1l-4.7-4.7l-4.7,4.7c-0.6,0.6-1.4,1-2.3,1
			c-1.8,0-3.3-1.5-3.3-3.3c0-0.9,0.3-1.7,1-2.3l7.2-7.2c0.6-0.6,1.4-1,2.2-1c0.8,0.1,1.6,0.4,2.2,1l0.9,0.9l6.2,6.2
			C491.9,227.4,491.9,229.4,490.7,230.7z"/>
		<path class="st4" d="M494.9,232.8c-0.6,0.6-1.4,1-2.3,1c-0.9,0-1.7-0.4-2.3-1l-4.7-4.7l-4.7,4.7c-0.6,0.6-1.4,1-2.3,1
			c-1.8,0-3.3-1.5-3.3-3.3c0-0.9,0.3-1.7,1-2.3l7.2-7.2c0.6-0.6,1.4-1,2.2-1c0.8,0.1,1.6,0.4,2.2,1l0.9,0.9l6.2,6.2
			C496.1,229.4,496.1,231.5,494.9,232.8z"/>
		<path class="st4" d="M498.8,236.6c-0.6,0.6-1.4,1-2.3,1c-0.9,0-1.7-0.4-2.3-1l-4.7-4.7l-4.7,4.7c-0.6,0.6-1.4,1-2.3,1
			c-1.8,0-3.3-1.5-3.3-3.3c0-0.9,0.3-1.7,1-2.3l7.2-7.2c0.6-0.6,1.4-1,2.2-1c0.8,0.1,1.6,0.4,2.2,1l0.9,0.9l6.2,6.2
			C500,233.3,500,235.3,498.8,236.6z"/>
		<rect x="530.7" y="237.7" class="st3" width="148.6" height="12.9"/>
		<path class="st5" d="M541.4,325.6"/>
		<line class="st5" x1="97" y1="430.4" x2="70" y2="430.4"/>
		<polyline class="st5" points="701,430.4 679.4,430.4 664.3,430.4 643.3,430.4 628.2,430.4 172.9,430.4 157.8,430.4 136.8,430.4 
			121.7,430.4 103,430.4 		"/>
		<path class="st5" d="M311.8,435.7"/>
		<polygon class="st3" points="423.6,417.1 403.7,417.1 387.4,348.1 407.3,348.1 		"/>
		<rect x="374.4" y="425.1" class="st4" width="51.2" height="5"/>
		<path class="st4" d="M425.6,425.1h-50.5c0-3.5,1.6-5.8,5.7-7.5l21.6-7.5h19.8L425.6,425.1z"/>
		<line class="st6" x1="374.4" y1="430.1" x2="374.4" y2="428.1"/>
		<line class="st6" x1="381.4" y1="430.1" x2="381.4" y2="428.1"/>
		<line class="st6" x1="387.4" y1="430.1" x2="387.4" y2="428.1"/>
		<line class="st6" x1="394.4" y1="430.1" x2="394.4" y2="428.1"/>
		<line class="st6" x1="400.4" y1="430.1" x2="400.4" y2="428.1"/>
		<line class="st6" x1="407.4" y1="430.1" x2="407.4" y2="428.1"/>
		<line class="st6" x1="413.4" y1="430.1" x2="413.4" y2="428.1"/>
		<line class="st6" x1="420.4" y1="430.1" x2="420.4" y2="428.1"/>
		<path class="st3" d="M392.3,425.1h-17.9c-0.1-2.2,0.9-4.3,2.6-5.5c1.3-1,3-1.5,4.6-1.5h3.6C389.2,418.1,392.3,421.2,392.3,425.1z"
			/>
		<path class="st4" d="M387.9,415.1h3.9c1.9,0,3.7,0.7,5,2.1l0,0"/>
		<path class="st4" d="M396.6,412.1h4.8c1.9,0,3.7,0.7,5,2.1l0,0"/>
		<path class="st4" d="M421.9,275.5l-40,0.1c-9.6,0-17.3,7.8-17.3,17.4c0,1.3,0.2,2.7,0.5,3.9l25,105.8h30l-23-97.2h59.8"/>
		<path class="st2" d="M435.3,298.5h-40.4c-2.9,0-5.2,2.4-5.1,5.2c0,0.4,0.1,0.8,0.1,1.2l23.4,96.8"/>
		<polygon class="st3" points="377,419.7 362.9,405.6 405.9,335.7 420,349.8 		"/>
		
			<rect x="352.7" y="390.7" transform="matrix(0.4594 -0.8882 0.8882 0.4594 -177.7909 540.502)" class="st4" width="5" height="51.2"/>
		<path class="st4" d="M379.1,425.9l-44.9-23.2c1.6-3.1,4.1-4.4,8.5-4.1l22.6,3.3l17.2,8.9L379.1,425.9z"/>
		<line class="st6" x1="331.3" y1="406.8" x2="332.2" y2="405"/>
		<line class="st6" x1="337.5" y1="410" x2="338.4" y2="408.2"/>
		<line class="st6" x1="342.8" y1="412.8" x2="343.7" y2="411"/>
		<line class="st6" x1="349" y1="416" x2="349.9" y2="414.2"/>
		<line class="st6" x1="354.4" y1="418.8" x2="355.3" y2="417"/>
		<line class="st6" x1="360.6" y1="422" x2="361.5" y2="420.2"/>
		<line class="st6" x1="365.9" y1="424.7" x2="366.8" y2="423"/>
		<line class="st6" x1="372.1" y1="427.9" x2="373" y2="426.2"/>
		<path class="st3" d="M349.5,410.6l-15.9-8.2c0.9-2,2.7-3.4,4.9-3.7c1.7-0.3,3.3,0,4.8,0.8l3.2,1.6
			C349.9,403,351.3,407.2,349.5,410.6L349.5,410.6z"/>
		<path class="st4" d="M350.2,399.7l3.4,1.8c1.7,0.9,2.9,2.3,3.5,4.1l0,0"/>
		<path class="st4" d="M359.2,401l4.3,2.2c1.7,0.9,2.9,2.3,3.5,4.1l0,0"/>
		<path class="st4" d="M457.2,275.5c-5.5,0.2-12.9-0.3-17.8,0.1c-5.4,0.5-10.2,3.5-13.1,8.1l-61.5,98.8l25.6,14.8l56.9-92h10"/>
		<path class="st3" d="M165.1,84.7h154.5c1.2,0,2.2,1,2.2,2.2v115.5c0,1.2-1,2.2-2.2,2.2H165.1c-1.2,0-2.2-1-2.2-2.2V86.9
			C162.9,85.7,163.9,84.7,165.1,84.7z"/>
		<path class="st4" d="M237.6,84.7h-60.5c-1.2,0-2.2,1-2.2,2.2l0,0v115.5c0,1.2,1,2.2,2.2,2.2c0,0,0,0,0,0h154.5
			c1.2,0,2.2-1,2.2-2.2V86.9c0-1.2-1-2.2-2.2-2.2L237.6,84.7"/>
		<path class="st4" d="M182.9,92.7h142c1.1,0,2,0.9,2,2v89c0,1.1-0.9,2-2,2h-142c-1.1,0-2-0.9-2-2v-89
			C180.9,93.6,181.7,92.7,182.9,92.7z"/>
		<path class="st1" d="M187.8,136.3h57.5c0.8,0,1.5,0.7,1.5,1.5v40.7c0,0.8-0.7,1.5-1.5,1.5h-57.5c-0.8,0-1.5-0.7-1.5-1.5v-40.7
			C186.4,137,187,136.3,187.8,136.3z"/>
		<path class="st4" d="M192.9,131.2h57.5c0.8,0,1.5,0.7,1.5,1.5v40.7c0,0.8-0.7,1.5-1.5,1.5h-57.5c-0.8,0-1.5-0.7-1.5-1.5v-40.7
			C191.4,131.9,192.1,131.2,192.9,131.2z"/>
		<path class="st3" d="M251.9,132.7v3.6h-60.4v-3.6c0-0.8,0.7-1.5,1.5-1.5h0h57.5C251.2,131.2,251.9,131.9,251.9,132.7z"/>
		<path class="st3" d="M218.9,204.7h47l0,0v33l0,0h-42c-2.8,0-5-2.2-5-5V204.7L218.9,204.7z"/>
		<path class="st3" d="M282.9,237.7h-47c-2.8,0-5-2.2-5-5v-28h47v28C277.9,235.5,280.1,237.7,282.9,237.7z"/>
		<rect x="230.9" y="204.7" class="st7" width="47" height="6"/>
		<line class="st5" x1="504.1" y1="213.4" x2="525.4" y2="195.1"/>
		<path class="st8" d="M522.6,192.3"/>
		<path class="st8" d="M501.3,210.5"/>
		<path class="st4" d="M415.8,212.3l-38.8,9.2c-1.2,0.3-2.5-0.2-3.2-1.2l-5.1-7.2c-0.6-0.8-1.5-1.3-2.5-1.3h-7.4l-9.1,2.4
			c-1,0.3-1.7,1.2-1.7,2.2l-0.6,17.8c0,1.2,0.4,2.4,1.2,3.4l83.2-0.1"/>
		<path class="st4" d="M359.4,201v34.8c0,0.9-0.7,1.6-1.6,1.6c0,0,0,0,0,0H343c-0.9,0-1.6-0.7-1.6-1.6c0,0,0,0,0,0V201
			c0-3.5,2.1-6.7,5.2-8.2v-15.4c0-0.9,0.7-1.6,1.6-1.6c0,0,0,0,0,0h4.4c0.9,0,1.6,0.7,1.6,1.6c0,0,0,0,0,0v15.4
			C357.4,194.3,359.4,197.5,359.4,201z"/>
		<path class="st4" d="M348.9,175.9l3.6,0c1.1,0,2,0.9,2,2l0,1.1l0,0l-7.6-0.1l0,0l0-1.1C346.9,176.7,347.8,175.9,348.9,175.9z"/>
		<rect x="341.4" y="204.7" class="st3" width="18" height="20.1"/>
		<path class="st4" d="M366.5,211.9h-11c-1.7,0-3,1.3-3,3s1.3,3,3,3h4c-2.7,2.7-2.7,7,0,9.7c1.3,1.3,3,2,4.9,2"/>
		
			<rect x="612.4" y="199.8" transform="matrix(0.318 -0.9481 0.9481 0.318 234.6699 728.791)" class="st3" width="22.9" height="3"/>
		<path class="st3" d="M610,202.6h15.6c1.4,0,2.6,1.2,2.6,2.6V235c0,1.4-1.2,2.6-2.6,2.6H610c-1.4,0-2.6-1.2-2.6-2.6v-29.9
			C607.5,203.7,608.6,202.6,610,202.6z"/>
		<circle class="st4" cx="617.8" cy="220.1" r="5.6"/>
		<rect x="121.7" y="237.6" class="st4" width="410.1" height="13"/>
		<path class="st4" d="M371.7,214.4"/>
		<polyline class="st5" points="431.7,237.4 439.8,219.2 420.1,202.4 		"/>
		<path class="st4" d="M416.8,229.9h90.9l0,0v7.6l0,0h-98.5l0,0l0,0C409.2,233.3,412.6,229.9,416.8,229.9L416.8,229.9z"/>
		<path class="st3" d="M503.9,229.9h13.8c1.3,0,2.3,1.1,2.3,2.4v5.3l0,0h-23.7l0,0l0,0C496.3,233.3,499.7,229.9,503.9,229.9
			C503.9,229.9,503.9,229.9,503.9,229.9z"/>
		<path class="st4" d="M341.1,237.6h4.8c1.8,0,3.2-1.4,3.2-3.2l0,0V221c0-1.8-1.4-3.2-3.2-3.2l0,0h-6.6L341.1,237.6z"/>
		<path class="st3" d="M388.2,229c0,3.2-1.2,6.3-3.3,8.7h-7.6c4.8-1.1,7.8-5.8,6.8-10.6c-0.6-2.6-2.3-4.9-4.8-6.1l5.1-1.2
			C386.9,222.2,388.3,225.5,388.2,229z"/>
		<polyline class="st4" points="398.8,301.7 397.1,305.5 394.5,303.6 		"/>
		<line class="st5" x1="447.3" y1="305.5" x2="448.5" y2="303.6"/>
		<path class="st4" d="M512,283.7"/>
		<path class="st2" d="M493.7,267.6l-1.5,18.8c-0.6,7.3-6.7,12.9-14,13h-28.7c-2.8,0-5.4,1.4-6.9,3.8l-56.5,90.6"/>
		<path class="st3" d="M500.4,257.4l-0.5,6l-0.3,3.1h-80c0.5-2.4,1.2-4.8,2.2-7l0.9-2.1L500.4,257.4z"/>
		<line class="st5" x1="438.9" y1="261.9" x2="447.8" y2="261.9"/>
		<path class="st2" d="M479.1,267.5c0,4.6-0.1,12.5,13.5,12.5"/>
		<path class="st2" d="M501.3,210.5"/>
		<path class="st2" d="M423.7,200.1"/>
		<line class="st2" x1="502.3" y1="209.7" x2="521.8" y2="192.9"/>
		<polygon class="st4" points="207.9,250.6 157.8,430.4 121.7,430.4 171.9,250.6 		"/>
		<polygon class="st3" points="223,250.6 172.9,430.4 136.8,430.4 187,250.6 		"/>
		<polygon class="st3" points="664.3,430.4 628.2,430.4 578,250.6 614.1,250.6 		"/>
		<polygon class="st4" points="679.4,430.4 643.3,430.4 593.1,250.6 629.2,250.6 		"/>
		<path class="st9" d="M586.7,207.4c0.7,2.4-2.6,5.5-4.5,6.1s-1.8-1.6-2.5-4s2.6-5.5,4.5-6.1S585.9,205.1,586.7,207.4z"/>
		<path class="st4" d="M558,207.2c3.4,1.3,4.9,5.4,4.3,7s-3.1-0.1-6.4-1.3s-4.9-5.4-4.3-7S554.7,205.9,558,207.2z"/>
		<path class="st4" d="M567.6,208.5c-1.8,3.1-6.2,3.9-7.6,3.1s0.6-3,2.4-6.1s6.2-3.9,7.6-3.1S569.4,205.4,567.6,208.5z"/>
		<path class="st4" d="M591.1,212.8c-3.3,1.3-7.3-0.8-7.9-2.3s2.4-2,5.7-3.3s7.3,0.8,7.9,2.3S594.4,211.5,591.1,212.8z"/>
		<path class="st4" d="M578.1,212.4c-2.8-2.2-3-6.7-2-8s2.9,1,5.7,3.3s3,6.7,2,8S580.9,214.6,578.1,212.4z"/>
		<path class="st4" d="M571.8,212c-3.6-0.2-6.3-3.7-6.2-5.3s3-0.9,6.5-0.7s6.3,3.7,6.2,5.3S575.4,212.2,571.8,212z"/>
		<path class="st4" d="M599.3,210.5c0,13.4-10.9,24.3-24.3,24.3c-13.4,0-24.3-10.9-24.3-24.3H599.3z"/>
		<path class="st4" d="M583,233.4v4.1h-16v-4.1C572.2,235.2,577.8,235.2,583,233.4z"/>
		<path class="st4" d="M540.3,231.5c3.8-1.2,6.6,3.1,6.7,4.8s-2.9,1.1-6.5,1.2s-6.6-3.1-6.7-4.8S536.9,232.6,540.3,231.5z"/>
		<line class="st5" x1="607.5" y1="206.6" x2="628.2" y2="206.6"/>
		<line class="st5" x1="607.5" y1="233.4" x2="628.2" y2="233.4"/>
		<line class="st5" x1="496.5" y1="202.6" x2="495.1" y2="203.7"/>
		<path class="st10" d="M680.1,171.4V86.9h-56.9v84.5H680.1z M673.1,164.4h-42.9V93.9h42.9L673.1,164.4z"/>
		<path class="st10" d="M612.1,128.4V43.9h-56.9v84.5H612.1z M605.1,121.4h-42.9V50.9h42.9L605.1,121.4z"/>
		<line class="st5" x1="197" y1="169.5" x2="246" y2="169.5"/>
		<circle class="st3" cx="208" cy="169.5" r="2"/>
		<polyline class="st11" points="210,151.5 210,151.5 227,151.5 		"/>
		<path class="st1" d="M239,153.5c2.6,0,4.5,3.4,1.4,6H238c0-2.2-1.8-4-4-4s-4,1.8-4,4h-16c0-2.2-1.8-4-4-4s-4,1.8-4,4h-0.4
			c-2.5,0-4.6-2.1-4.6-4.6l0,0v-1.4h6.9l3.1-10h15l3.1,10H239z"/>
		<path class="st12" d="M224.5,145.5h-12.1l-2.5,8h17L224.5,145.5z"/>
		<circle class="st1" cx="210" cy="159.5" r="3"/>
		<circle class="st1" cx="234" cy="159.5" r="3"/>
		<path class="st1" d="M266.8,108.4h73.6c1,0,1.9,0.8,1.9,1.9v52.2c0,1-0.8,1.9-1.9,1.9h-73.6c-1,0-1.9-0.8-1.9-1.9v-52.2
			C265,109.2,265.8,108.4,266.8,108.4z"/>
		<path class="st4" d="M273.4,101.8H347c1,0,1.9,0.8,1.9,1.9v52.2c0,1-0.8,1.9-1.9,1.9h-73.6c-1,0-1.9-0.8-1.9-1.9v-52.2
			C271.5,102.7,272.4,101.8,273.4,101.8z"/>
		<path class="st3" d="M348.9,103.7v4.7h-77.3v-4.7c0-1,0.8-1.9,1.9-1.9H347C348,101.9,348.8,102.7,348.9,103.7z"/>
		<rect x="277.9" y="112.4" class="st1" width="64" height="5.1"/>
		<rect x="277.9" y="120.1" class="st13" width="17.9" height="33.3"/>
		<rect x="330.4" y="120.1" class="st13" width="11.5" height="11.5"/>
		<rect x="330.4" y="134.2" class="st13" width="11.5" height="11.5"/>
		<rect x="330.4" y="148.3" class="st13" width="11.5" height="5.1"/>
		<rect x="299.7" y="120.1" class="st1" width="26.9" height="16.6"/>
		<rect x="299.7" y="139.3" class="st1" width="26.9" height="14.1"/>
		<circle class="st3" cx="348.3" cy="102.2" r="6.4"/>
		<g class="st14">
			<path class="st7" d="M290.6,136.6h-3v10h-3.4v-10h-1.9v-1.6l1.9-0.9v-0.9c-0.1-1.1,0.3-2.3,1.1-3.1c1-0.7,2.2-1.1,3.4-1
				c1.1,0,2.1,0.2,3.2,0.5l-0.9,2.5c-0.6-0.2-1.3-0.3-1.9-0.3c-0.4,0-0.8,0.1-1.1,0.4c-0.2,0.3-0.3,0.7-0.3,1.1v0.8h3L290.6,136.6z"
				/>
		</g>
		<rect x="191" y="104.5" class="st1" width="19" height="18"/>
		<rect x="214" y="104.5" class="st1" width="19" height="18"/>
		<rect x="237" y="104.5" class="st1" width="19" height="18"/>
		<rect x="265" y="170.5" class="st1" width="55" height="9"/>
		<path class="st15" d="M400.2,0c-18.5,0-33.5,15-33.5,33.5s15,33.5,33.5,33.5s33.5-15,33.5-33.5S418.7,0,400.2,0z M400.2,60.1
			c-14.7,0-26.6-11.9-26.6-26.6s11.9-26.6,26.6-26.6c14.7,0,26.6,11.9,26.6,26.6c0,0,0,0,0,0C426.7,48.2,414.8,60.1,400.2,60.1z"/>
		<polyline class="st16" points="416.1,24.4 400.6,35.3 391.8,28.2 		"/>
		<rect y="36.5" class="st17" width="122.3" height="95.3"/>
		<rect y="137.8" class="st18" width="122.3" height="51.7"/>
		<rect y="22.5" class="st1" width="122.3" height="7"/>
		<rect y="196.5" class="st1" width="122.3" height="7"/>
		<path class="st3" d="M494.4,130.7c-1.3,3.3-2,6.7-2,10.2v0.2c-1.1-0.2-2.3-0.3-3.4-0.2h-0.9c-8.3,0-26.1,0.3-33.9,0.6
			c-2.3,0.1-3.8,0.1-3.8,0.2l0,0c-1-7.8-3.2-14.6-6.1-22.6c-0.9-2.5-1.4-4.9-0.4-7.2c0,0,0.1-0.3,0.3-0.7c1.5-3.7,3.8-6.9,6.7-9.7
			c0.1-0.1,0.2-0.2,0.4-0.4l1.6,2.3l1.2,1.8l3.4,4.8c0.2,0.3,0.5,0.7,0.7,1l0.2,0.3c0.1,0.1,0.2,0.2,0.2,0.3l0,0
			c6,7.4,15.1,11.4,24.6,10.7c3-0.2,5.9-0.8,8.7-1.9c0.5-0.3,1.1-0.5,1.6-0.7c1.8-0.6,2.9-0.6,3.3,0.2
			C497.6,121.3,496.5,124.7,494.4,130.7z"/>
		<path class="st19" d="M494.6,141.1l-45.9,0.4c-2.8,0.1-5.2-2.2-5.3-5v-0.3c0-2.8,2.3-5.1,5.2-5.1l45.9-0.4c2.8-0.1,5.2,2.2,5.3,5
			v0.3C499.7,138.8,497.4,141.1,494.6,141.1C494.6,141.1,494.6,141.1,494.6,141.1z"/>
		<path class="st4" d="M492.2,144.2c0.3,11.6-8.8,21.3-20.5,21.7c-11.6,0.3-21.3-8.8-21.7-20.5c0-0.3,0-0.5,0-0.8l-0.1-5.9l-0.1-7.8
			l-0.1-8.1c0-0.9,0-1.7,0.1-2.6c1.2-10.6,10.1-18.6,20.7-18.7h0.2c11.6,0,21,9.3,21.1,20.9l0.1,7.9L492.2,144.2z"/>
		<path class="st4" d="M480.6,145.4c-0.2,5.1-4.6,9.1-9.7,8.8c-4.7-0.2-8.5-3.9-8.8-8.7L480.6,145.4z"/>
		<path class="st5" d="M455.8,132.1c0.6-3,3.3-5.2,6.3-5.1"/>
		<path class="st5" d="M479.2,127c3-0.6,6,1,7.1,3.9"/>
		<path class="st7" d="M461.9,134.7c-0.7,0-1.3-0.6-1.3-1.3c0-0.7,0.6-1.3,1.3-1.3s1.3,0.6,1.3,1.3
			C463.2,134.1,462.7,134.6,461.9,134.7L461.9,134.7z"/>
		<path class="st7" d="M461.9,131.1L461.9,131.1c-1.3,0.1-2.2,1.2-2.2,2.5c0.1,1.2,1,2.1,2.2,2.2l0,0c1.3-0.1,2.2-1.2,2.2-2.5
			C464,132,463.1,131.1,461.9,131.1z"/>
		<path class="st7" d="M480.5,134.5c-0.7,0-1.3-0.6-1.3-1.3c0-0.7,0.6-1.3,1.3-1.3c0.7,0,1.3,0.6,1.3,1.3
			C481.8,133.9,481.2,134.5,480.5,134.5L480.5,134.5z"/>
		<path class="st7" d="M480.5,130.9L480.5,130.9c-1.3,0.1-2.2,1.2-2.2,2.5c0.1,1.2,1,2.1,2.2,2.2l0,0c1.3-0.1,2.2-1.2,2.2-2.5
			C482.5,131.9,481.6,130.9,480.5,130.9z"/>
		<path class="st4" d="M493.5,119.8c-0.5,0.2-1.1,0.5-1.6,0.7C492.4,120.2,493,120,493.5,119.8z"/>
		<path class="st3" d="M498.1,112.7c-3.5-9.5-11.6-16.5-21.5-18.5c-0.3-0.1-0.7-0.1-1-0.2c-0.7-0.1-1.4-0.2-2.1-0.3
			c-0.8-0.1-1.7-0.1-2.6-0.1h-0.3c-5.7,0-11.4,1.8-16.1,5c-1.2,0.8-2.3,1.7-3.3,2.6c-0.1,0.1-0.2,0.2-0.4,0.4
			c-2.9,2.7-5.2,6-6.7,9.7c1-2.6,3.5-4.3,6.4-4.3c4.6,0,8.1,4.8,8.1,4.8c8,10,18.8,14.3,30.4,9.8c4.5-1.6,9.9,1,5.4,9.2
			C496.2,126.3,501.1,120.9,498.1,112.7z"/>
		<path class="st20" d="M494.8,115.7c-1-2.7-2.4-5.3-4.2-7.6"/>
		<path class="st5" d="M481.4,118.5c-4.4,0-8.7-1.2-12.6-3.3"/>
		<path class="st5" d="M461.9,121.5c-7.3-7.3-6.1-11.8-6.1-12.6c0,0-3.1,5.1-1.3,9.7"/>
		<path class="st5" d="M441.1,113c0.9-3.2,4.4-4.9,4.4-4.9s-0.3-1.9-3-1.9"/>
		<line class="st2" x1="468.7" y1="158.8" x2="473.6" y2="158.8"/>
		<line class="st21" x1="61.2" y1="139.2" x2="61.2" y2="154.3"/>
		<circle class="st21" cx="61.2" cy="160.5" r="6.2"/>
		<path class="st4" d="M323.1,227.3h-16.9c-2.7,0-5.4,1.1-7.3,3.1l-7,7.1h31.2L323.1,227.3z"/>
		<path class="st4" d="M330.6,237.5c0-5.6-4.6-10.2-10.2-10.2l0,0h-6.7c-2.7,0-5.4,1.1-7.3,3.1l-7,7.1L330.6,237.5L330.6,237.5z"/>
		<path class="st3" d="M323.6,227.3h-0.7c-2.7,0-5.4,1.1-7.3,3.1l-7,7.1h25.2C333.8,231.9,329.3,227.3,323.6,227.3z"/>
		<line class="st5" x1="201.5" y1="415" x2="325.4" y2="415"/>
		<path class="st4" d="M199.9,406.2"/>
		<path class="st4" d="M219.6,415h-23.8c-2.1,0-4-0.9-5.4-2.4c-1.6-1.6-3.3-3.4-4.5-4.7c-0.3-0.4-0.3-1.1,0.2-1.4
			c0.2-0.1,0.3-0.2,0.5-0.2h20.1c0.9,0,1.9,0.4,2.5,1.1c1.2,1.3,3.2,3.5,5,5.2C215.5,414.1,217.5,415,219.6,415z"/>
		<path class="st4" d="M307.3,415H331c2.1,0,4-0.9,5.4-2.4c1.6-1.6,3.3-3.4,4.5-4.7c0.3-0.4,0.2-1.1-0.2-1.4
			c-0.1-0.1-0.3-0.2-0.5-0.2h-20.1c-0.9,0-1.8,0.4-2.5,1.1c-1.2,1.3-3.2,3.5-5,5.2C311.3,414.1,309.3,415,307.3,415z"/>
		<path class="st7" d="M197.1,410.9c0.2,0.4,0,0.7-0.4,0.7c-0.5,0-0.9-0.3-1.2-0.7c-0.2-0.4,0-0.7,0.4-0.7
			C196.4,410.3,196.9,410.5,197.1,410.9z"/>
		<path class="st7" d="M201.8,410.9c0.2,0.4,0,0.7-0.4,0.7c-0.5,0-0.9-0.3-1.2-0.7c-0.2-0.4,0-0.7,0.4-0.7
			C201.1,410.3,201.5,410.5,201.8,410.9z"/>
		<path class="st7" d="M206.4,410.9c0.2,0.4,0,0.7-0.4,0.7c-0.5,0-0.9-0.3-1.2-0.7c-0.2-0.4,0-0.7,0.4-0.7
			C205.7,410.3,206.2,410.5,206.4,410.9z"/>
		<path class="st3" d="M237.2,426c0,2.4-1.9,4.3-4.3,4.3c0,0,0,0,0,0h-4.3v-8.7h4.3C235.2,421.7,237.2,423.6,237.2,426
			C237.2,426,237.2,426,237.2,426z"/>
		<circle class="st22" cx="228.5" cy="426" r="4.3"/>
		<line class="st5" x1="228.5" y1="426" x2="206.3" y2="426"/>
		<path class="st22" d="M214.9,426c0,2.4-1.9,4.3-4.3,4.3c0,0,0,0,0,0h-4.3v-8.7h4.3C213,421.7,214.9,423.6,214.9,426
			C214.9,426,214.9,426,214.9,426z"/>
		<circle class="st4" cx="206.3" cy="426" r="4.3"/>
		<circle class="st7" cx="206.3" cy="426" r="1"/>
		<line class="st5" x1="220.5" y1="425.9" x2="220.5" y2="415"/>
		<polygon class="st4" points="211.6,418.3 223.6,418.3 225.6,415 209.6,415 		"/>
		<polygon class="st22" points="215.7,418.3 227.7,418.3 229.7,415 213.7,415 		"/>
		<path class="st3" d="M324.9,426c0,2.4-1.9,4.3-4.3,4.3c0,0,0,0,0,0h-4.3v-8.7h4.3C323,421.7,324.9,423.6,324.9,426
			C324.9,426,324.9,426,324.9,426z"/>
		<circle class="st22" cx="316.3" cy="426" r="4.3"/>
		<line class="st5" x1="316.3" y1="426" x2="294" y2="426"/>
		<path class="st22" d="M302.7,426c0,2.4-1.9,4.3-4.3,4.3c0,0,0,0,0,0H294v-8.7h4.3C300.7,421.6,302.7,423.6,302.7,426
			C302.7,426,302.7,426,302.7,426z"/>
		<circle class="st4" cx="294" cy="426" r="4.3"/>
		<circle class="st7" cx="294" cy="426" r="1"/>
		<line class="st5" x1="308.3" y1="425.9" x2="308.3" y2="415"/>
		<polygon class="st4" points="299.3,418.3 311.3,418.3 313.3,415 297.3,415 		"/>
		<polygon class="st22" points="303.4,418.3 315.4,418.3 317.4,415 301.4,415 		"/>
		<path class="st4" d="M175.8,233.1h27.5c1.2,0,2.2,1,2.2,2.2l0,0c0,1.2-1,2.2-2.2,2.2h-27.5c-1.2,0-2.2-1-2.2-2.2l0,0
			C173.6,234.1,174.6,233.1,175.8,233.1z"/>
		<path class="st5" d="M147.3,233.2c1-6.5,6.6-11.3,13.1-11.3c0.6,0,1.3,0,1.9,0.1"/>
		<path class="st5" d="M161.2,230c-2.9-0.4-5.6,1.6-6,4.5"/>
		<path class="st5" d="M147.3,233.2c1-6.5,6.6-11.3,13.1-11.3c0.6,0,1.3,0,1.9,0.1"/>
		<path class="st5" d="M151.2,233.9c0.8-5.1,5.5-8.6,10.6-7.9"/>
		<path class="st5" d="M161.2,230c-2.9-0.4-5.6,1.6-6,4.5"/>
		<path class="st4" d="M160.8,233.1h17.5c1.2,0,2.2,1,2.2,2.2l0,0c0,1.2-1,2.2-2.2,2.2h-17.5c-1.2,0-2.2-1-2.2-2.2l0,0
			C158.6,234.1,159.6,233.1,160.8,233.1z"/>
	</g>
</g>
</svg>
